<svg width="1542" height="913" viewBox="0 0 1542 913" fill="none" xmlns="http://www.w3.org/2000/svg">
<rect width="1542" height="900" fill="#000212"/>
<rect width="1542" height="900" fill="#000212"/>
<mask id="mask0_1347_20410" style="mask-type:alpha" maskUnits="userSpaceOnUse" x="508" y="25" width="1024" height="600">
<rect x="1532" y="625" width="1024" height="600" transform="rotate(180 1532 625)" fill="url(#paint0_radial_1347_20410)"/>
</mask>
<g mask="url(#mask0_1347_20410)">
<rect opacity="0.88" x="1657" y="871" width="1024" height="853" transform="rotate(180 1657 871)" fill="url(#paint1_radial_1347_20410)"/>
<mask id="mask1_1347_20410" style="mask-type:alpha" maskUnits="userSpaceOnUse" x="785" y="41" width="732" height="872">
<rect x="785.5" y="913" width="872" height="731" transform="rotate(-90 785.5 913)" fill="url(#paint2_radial_1347_20410)"/>
</mask>
<g mask="url(#mask1_1347_20410)">
</g>
<g clip-path="url(#clip0_1347_20410)">
<g opacity="0.7">
<path d="M1284.71 566.258C1284.53 565.986 1284.17 565.909 1283.9 566.085C1283.63 566.262 1283.55 566.625 1283.73 566.897C1283.9 567.169 1284.27 567.247 1284.54 567.07C1284.81 566.894 1284.89 566.53 1284.71 566.258Z" fill="white"/>
<path d="M1223.26 529.829C1223.08 529.557 1222.72 529.48 1222.45 529.656C1222.18 529.833 1222.1 530.196 1222.28 530.468C1222.45 530.74 1222.82 530.817 1223.09 530.641C1223.36 530.464 1223.44 530.101 1223.26 529.829Z" fill="white"/>
<path d="M1246.75 487.274C1246.58 487.002 1246.21 486.924 1245.94 487.101C1245.67 487.277 1245.59 487.641 1245.77 487.913C1245.94 488.185 1246.31 488.262 1246.58 488.086C1246.85 487.909 1246.93 487.546 1246.75 487.274Z" fill="white"/>
<path opacity="0.11" d="M1306.47 571.743C1306.29 571.471 1305.93 571.394 1305.66 571.57C1305.39 571.747 1305.31 572.11 1305.48 572.382C1305.66 572.654 1306.02 572.731 1306.3 572.555C1306.57 572.378 1306.65 572.015 1306.47 571.743Z" fill="white"/>
<path opacity="0.3" d="M1211.93 511.282C1211.75 511.01 1211.39 510.932 1211.11 511.109C1210.84 511.285 1210.76 511.649 1210.94 511.921C1211.12 512.193 1211.48 512.27 1211.75 512.094C1212.03 511.917 1212.1 511.554 1211.93 511.282Z" fill="white"/>
<path opacity="0.11" d="M1243.2 603.704C1243.02 603.432 1242.66 603.355 1242.38 603.531C1242.11 603.708 1242.04 604.071 1242.21 604.343C1242.39 604.615 1242.75 604.692 1243.02 604.516C1243.3 604.339 1243.37 603.976 1243.2 603.704Z" fill="white"/>
<path opacity="0.11" d="M1241.74 510.836C1241.56 510.564 1241.2 510.486 1240.93 510.663C1240.65 510.839 1240.58 511.203 1240.75 511.475C1240.93 511.747 1241.29 511.824 1241.56 511.648C1241.84 511.471 1241.91 511.108 1241.74 510.836Z" fill="white"/>
<path opacity="0.11" d="M1293.42 613.117C1293.06 612.573 1292.34 612.418 1291.79 612.771C1291.25 613.125 1291.09 613.852 1291.45 614.397C1291.8 614.941 1292.53 615.096 1293.07 614.743C1293.61 614.389 1293.77 613.662 1293.42 613.117Z" fill="white"/>
<path d="M1276.33 624.552C1276.07 624.144 1275.52 624.027 1275.12 624.292C1274.71 624.557 1274.59 625.103 1274.86 625.511C1275.12 625.919 1275.67 626.035 1276.07 625.77C1276.48 625.506 1276.6 624.96 1276.33 624.552Z" fill="white"/>
<path d="M1350.12 624.973C1349.85 624.565 1349.31 624.449 1348.9 624.714C1348.49 624.979 1348.38 625.524 1348.64 625.932C1348.91 626.341 1349.45 626.457 1349.86 626.192C1350.27 625.927 1350.38 625.381 1350.12 624.973Z" fill="white"/>
<path d="M1253.83 455.028C1253.57 454.62 1253.02 454.504 1252.61 454.768C1252.21 455.033 1252.09 455.579 1252.35 455.987C1252.62 456.395 1253.16 456.511 1253.57 456.246C1253.98 455.982 1254.1 455.436 1253.83 455.028Z" fill="white"/>
<path d="M1334.23 565.973C1333.97 565.565 1333.42 565.449 1333.02 565.714C1332.61 565.979 1332.49 566.524 1332.76 566.932C1333.02 567.341 1333.57 567.457 1333.97 567.192C1334.38 566.927 1334.5 566.381 1334.23 565.973Z" fill="white"/>
<path d="M1216.02 457.169C1215.75 456.761 1215.2 456.645 1214.8 456.91C1214.39 457.174 1214.27 457.72 1214.54 458.128C1214.8 458.536 1215.35 458.652 1215.76 458.388C1216.16 458.123 1216.28 457.577 1216.02 457.169Z" fill="white"/>
<path d="M1181.25 462.928C1180.98 462.52 1180.44 462.403 1180.03 462.668C1179.62 462.933 1179.5 463.479 1179.77 463.887C1180.03 464.295 1180.58 464.411 1180.99 464.146C1181.4 463.882 1181.51 463.336 1181.25 462.928Z" fill="white"/>
<path opacity="0.3" d="M1250.45 583.588C1250.1 583.043 1249.37 582.888 1248.83 583.242C1248.28 583.595 1248.13 584.323 1248.48 584.867C1248.83 585.411 1249.56 585.566 1250.1 585.213C1250.65 584.86 1250.8 584.132 1250.45 583.588Z" fill="white"/>
<path d="M1215.48 606.29C1215.12 605.746 1214.39 605.591 1213.85 605.944C1213.31 606.298 1213.15 607.025 1213.5 607.57C1213.86 608.114 1214.58 608.269 1215.13 607.916C1215.67 607.562 1215.83 606.835 1215.48 606.29Z" fill="white"/>
<path d="M1244.82 551.185C1244.56 550.776 1244.01 550.66 1243.61 550.925C1243.2 551.19 1243.08 551.736 1243.35 552.144C1243.61 552.552 1244.16 552.668 1244.57 552.403C1244.97 552.138 1245.09 551.593 1244.82 551.185Z" fill="white"/>
<path opacity="0.3" d="M1210.11 539.759C1209.75 539.215 1209.03 539.06 1208.48 539.413C1207.94 539.766 1207.78 540.494 1208.13 541.038C1208.49 541.583 1209.22 541.738 1209.76 541.384C1210.3 541.031 1210.46 540.303 1210.11 539.759Z" fill="white"/>
<path opacity="0.3" d="M1213.43 468.29C1213.08 467.745 1212.35 467.591 1211.81 467.944C1211.26 468.297 1211.11 469.025 1211.46 469.569C1211.82 470.113 1212.54 470.268 1213.09 469.915C1213.63 469.562 1213.79 468.834 1213.43 468.29Z" fill="white"/>
<path opacity="0.3" d="M1251.82 525.291C1251.47 524.746 1250.74 524.591 1250.2 524.945C1249.65 525.298 1249.5 526.026 1249.85 526.57C1250.2 527.114 1250.93 527.269 1251.48 526.916C1252.02 526.563 1252.18 525.835 1251.82 525.291Z" fill="white"/>
<path opacity="0.11" d="M1211.76 498.079C1211.41 497.535 1210.68 497.38 1210.14 497.733C1209.59 498.087 1209.44 498.814 1209.79 499.359C1210.14 499.903 1210.87 500.058 1211.42 499.705C1211.96 499.351 1212.12 498.624 1211.76 498.079Z" fill="white"/>
<path opacity="0.11" d="M1073.23 611.907C1072.88 611.363 1072.15 611.208 1071.61 611.561C1071.06 611.915 1070.91 612.642 1071.26 613.187C1071.61 613.731 1072.34 613.886 1072.89 613.533C1073.43 613.179 1073.59 612.452 1073.23 611.907Z" fill="white"/>
<path d="M1076.57 605.192C1076.31 604.784 1075.76 604.668 1075.36 604.932C1074.95 605.197 1074.83 605.743 1075.1 606.151C1075.36 606.559 1075.91 606.675 1076.32 606.411C1076.72 606.146 1076.84 605.6 1076.57 605.192Z" fill="white"/>
<path d="M1055.68 595.645C1055.42 595.237 1054.87 595.121 1054.46 595.386C1054.05 595.65 1053.94 596.196 1054.2 596.604C1054.47 597.012 1055.01 597.129 1055.42 596.864C1055.83 596.599 1055.94 596.053 1055.68 595.645Z" fill="white"/>
<path d="M1093.41 600.923C1093.23 600.651 1092.87 600.573 1092.59 600.75C1092.32 600.926 1092.24 601.29 1092.42 601.562C1092.6 601.834 1092.96 601.911 1093.23 601.735C1093.5 601.558 1093.58 601.195 1093.41 600.923Z" fill="white"/>
<path d="M1023.71 493.524C1023.54 493.252 1023.17 493.175 1022.9 493.351C1022.63 493.528 1022.55 493.891 1022.73 494.163C1022.9 494.435 1023.27 494.513 1023.54 494.336C1023.81 494.16 1023.89 493.796 1023.71 493.524Z" fill="white"/>
<path d="M962.263 457.094C962.086 456.822 961.723 456.745 961.451 456.921C961.179 457.098 961.102 457.461 961.278 457.733C961.455 458.005 961.818 458.083 962.09 457.906C962.362 457.73 962.439 457.366 962.263 457.094Z" fill="white"/>
<path d="M985.758 414.54C985.582 414.268 985.218 414.191 984.946 414.368C984.674 414.544 984.597 414.908 984.773 415.179C984.95 415.451 985.313 415.529 985.585 415.352C985.857 415.176 985.935 414.812 985.758 414.54Z" fill="white"/>
<path opacity="0.11" d="M1111.78 590.391C1111.6 590.12 1111.24 590.042 1110.97 590.219C1110.7 590.395 1110.62 590.759 1110.79 591.031C1110.97 591.302 1111.33 591.38 1111.61 591.203C1111.88 591.027 1111.96 590.663 1111.78 590.391Z" fill="white"/>
<path opacity="0.11" d="M1045.47 499.008C1045.29 498.736 1044.93 498.659 1044.66 498.835C1044.39 499.012 1044.31 499.375 1044.49 499.647C1044.66 499.919 1045.03 499.997 1045.3 499.82C1045.57 499.644 1045.65 499.28 1045.47 499.008Z" fill="white"/>
<path d="M1010.18 587.024C1010 586.752 1009.64 586.675 1009.36 586.851C1009.09 587.028 1009.01 587.391 1009.19 587.663C1009.37 587.935 1009.73 588.013 1010 587.836C1010.28 587.66 1010.35 587.296 1010.18 587.024Z" fill="white"/>
<path opacity="0.3" d="M950.928 438.547C950.751 438.275 950.388 438.198 950.116 438.374C949.844 438.551 949.767 438.914 949.943 439.186C950.12 439.458 950.483 439.536 950.755 439.359C951.027 439.183 951.104 438.819 950.928 438.547Z" fill="white"/>
<path opacity="0.11" d="M982.2 530.969C982.024 530.697 981.66 530.62 981.388 530.796C981.116 530.973 981.039 531.336 981.216 531.608C981.392 531.88 981.756 531.958 982.028 531.781C982.299 531.605 982.377 531.241 982.2 530.969Z" fill="white"/>
<path opacity="0.11" d="M980.74 438.102C980.564 437.83 980.2 437.753 979.928 437.93C979.657 438.106 979.579 438.47 979.756 438.741C979.932 439.013 980.296 439.091 980.568 438.914C980.84 438.738 980.917 438.374 980.74 438.102Z" fill="white"/>
<path opacity="0.3" d="M1066.06 559.86C1065.71 559.316 1064.98 559.161 1064.43 559.514C1063.89 559.867 1063.74 560.595 1064.09 561.139C1064.44 561.684 1065.17 561.839 1065.71 561.485C1066.26 561.132 1066.41 560.404 1066.06 559.86Z" fill="white"/>
<path opacity="0.11" d="M1032.42 540.384C1032.07 539.84 1031.34 539.685 1030.79 540.038C1030.25 540.391 1030.09 541.119 1030.45 541.663C1030.8 542.208 1031.53 542.363 1032.07 542.009C1032.62 541.656 1032.77 540.928 1032.42 540.384Z" fill="white"/>
<path d="M1015.34 551.817C1015.07 551.409 1014.52 551.293 1014.12 551.558C1013.71 551.823 1013.59 552.368 1013.86 552.777C1014.12 553.185 1014.67 553.301 1015.08 553.036C1015.48 552.771 1015.6 552.226 1015.34 551.817Z" fill="white"/>
<path d="M1089.12 552.239C1088.86 551.831 1088.31 551.715 1087.9 551.979C1087.49 552.244 1087.38 552.79 1087.64 553.198C1087.91 553.606 1088.45 553.722 1088.86 553.457C1089.27 553.193 1089.39 552.647 1089.12 552.239Z" fill="white"/>
<path d="M992.834 382.294C992.569 381.886 992.024 381.77 991.616 382.035C991.208 382.299 991.091 382.845 991.356 383.253C991.621 383.661 992.167 383.777 992.575 383.513C992.983 383.248 993.099 382.702 992.834 382.294Z" fill="white"/>
<path d="M1040.53 569.067C1040.27 568.659 1039.72 568.543 1039.32 568.808C1038.91 569.073 1038.79 569.618 1039.06 570.027C1039.32 570.435 1039.87 570.551 1040.28 570.286C1040.68 570.021 1040.8 569.476 1040.53 569.067Z" fill="white"/>
<path d="M1073.24 493.239C1072.97 492.831 1072.43 492.715 1072.02 492.98C1071.61 493.245 1071.49 493.79 1071.76 494.198C1072.02 494.607 1072.57 494.723 1072.98 494.458C1073.38 494.193 1073.5 493.647 1073.24 493.239Z" fill="white"/>
<path d="M955.016 384.434C954.751 384.026 954.206 383.91 953.797 384.175C953.389 384.44 953.273 384.985 953.538 385.393C953.803 385.801 954.348 385.918 954.757 385.653C955.165 385.388 955.281 384.842 955.016 384.434Z" fill="white"/>
<path d="M920.25 390.192C919.986 389.784 919.44 389.668 919.032 389.933C918.624 390.198 918.507 390.743 918.772 391.152C919.037 391.56 919.583 391.676 919.991 391.411C920.399 391.146 920.515 390.601 920.25 390.192Z" fill="white"/>
<path opacity="0.3" d="M989.452 510.853C989.098 510.309 988.371 510.154 987.826 510.507C987.282 510.861 987.127 511.588 987.48 512.133C987.834 512.677 988.561 512.832 989.106 512.479C989.65 512.125 989.805 511.398 989.452 510.853Z" fill="white"/>
<path d="M954.477 533.556C954.124 533.012 953.396 532.857 952.852 533.21C952.308 533.564 952.153 534.291 952.506 534.836C952.859 535.38 953.587 535.535 954.131 535.182C954.676 534.828 954.83 534.101 954.477 533.556Z" fill="white"/>
<path d="M983.827 478.45C983.562 478.042 983.016 477.926 982.608 478.191C982.2 478.456 982.084 479.001 982.349 479.409C982.613 479.818 983.159 479.934 983.567 479.669C983.975 479.404 984.091 478.858 983.827 478.45Z" fill="white"/>
<path opacity="0.3" d="M949.108 467.024C948.755 466.48 948.027 466.325 947.483 466.678C946.938 467.031 946.783 467.759 947.137 468.303C947.49 468.848 948.218 469.003 948.762 468.649C949.306 468.296 949.461 467.569 949.108 467.024Z" fill="white"/>
<path opacity="0.3" d="M952.435 395.556C952.082 395.012 951.354 394.857 950.81 395.21C950.266 395.564 950.111 396.291 950.464 396.836C950.817 397.38 951.545 397.535 952.089 397.182C952.634 396.828 952.788 396.101 952.435 395.556Z" fill="white"/>
<path opacity="0.3" d="M990.824 452.556C990.471 452.012 989.743 451.857 989.199 452.21C988.654 452.564 988.499 453.291 988.853 453.836C989.206 454.38 989.933 454.535 990.478 454.182C991.022 453.828 991.177 453.101 990.824 452.556Z" fill="white"/>
<path opacity="0.11" d="M950.764 425.345C950.411 424.801 949.683 424.646 949.139 424.999C948.595 425.352 948.44 426.08 948.793 426.624C949.146 427.169 949.874 427.323 950.418 426.97C950.963 426.617 951.118 425.889 950.764 425.345Z" fill="white"/>
<path opacity="0.11" d="M982.313 302.774C981.96 302.23 981.232 302.075 980.688 302.428C980.143 302.781 979.989 303.509 980.342 304.053C980.695 304.598 981.423 304.753 981.967 304.399C982.511 304.046 982.666 303.319 982.313 302.774Z" fill="white"/>
<path d="M985.655 296.059C985.39 295.651 984.844 295.535 984.436 295.8C984.028 296.065 983.912 296.61 984.177 297.018C984.442 297.426 984.987 297.543 985.395 297.278C985.803 297.013 985.92 296.467 985.655 296.059Z" fill="white"/>
<path d="M964.761 286.512C964.496 286.104 963.951 285.988 963.543 286.253C963.134 286.518 963.018 287.063 963.283 287.471C963.548 287.88 964.094 287.996 964.502 287.731C964.91 287.466 965.026 286.92 964.761 286.512Z" fill="white"/>
<path d="M990.947 329.028C990.682 328.62 990.136 328.504 989.728 328.769C989.32 329.034 989.204 329.579 989.469 329.988C989.734 330.396 990.279 330.512 990.687 330.247C991.095 329.982 991.212 329.437 990.947 329.028Z" fill="white"/>
<path opacity="0.11" d="M1018.6 345.743C1018.24 345.199 1017.52 345.044 1016.97 345.397C1016.43 345.751 1016.27 346.478 1016.63 347.023C1016.98 347.567 1017.71 347.722 1018.25 347.369C1018.79 347.015 1018.95 346.288 1018.6 345.743Z" fill="white"/>
<path d="M1013.83 362.133C1013.66 361.861 1013.29 361.784 1013.02 361.96C1012.75 362.137 1012.67 362.5 1012.85 362.772C1013.02 363.044 1013.39 363.122 1013.66 362.945C1013.93 362.769 1014.01 362.405 1013.83 362.133Z" fill="white"/>
<path d="M1002.49 291.79C1002.31 291.518 1001.95 291.441 1001.67 291.618C1001.4 291.794 1001.32 292.157 1001.5 292.429C1001.68 292.701 1002.04 292.779 1002.31 292.602C1002.58 292.426 1002.66 292.062 1002.49 291.79Z" fill="white"/>
<path d="M932.793 184.391C932.617 184.119 932.253 184.042 931.981 184.218C931.709 184.395 931.632 184.758 931.808 185.03C931.985 185.302 932.348 185.379 932.62 185.203C932.892 185.026 932.97 184.663 932.793 184.391Z" fill="white"/>
<path d="M871.342 147.961C871.166 147.689 870.802 147.612 870.53 147.788C870.258 147.965 870.181 148.328 870.357 148.6C870.534 148.872 870.897 148.95 871.169 148.773C871.441 148.597 871.519 148.233 871.342 147.961Z" fill="white"/>
<path d="M894.836 105.407C894.66 105.135 894.296 105.058 894.024 105.234C893.752 105.411 893.675 105.774 893.851 106.046C894.028 106.318 894.391 106.396 894.663 106.219C894.935 106.043 895.013 105.679 894.836 105.407Z" fill="white"/>
<path d="M1096.63 463.829C1096.45 463.557 1096.09 463.48 1095.82 463.657C1095.55 463.833 1095.47 464.197 1095.64 464.469C1095.82 464.74 1096.18 464.818 1096.46 464.641C1096.73 464.465 1096.81 464.101 1096.63 463.829Z" fill="white"/>
<path opacity="0.11" d="M1074.82 488.477C1074.65 488.205 1074.28 488.128 1074.01 488.305C1073.74 488.481 1073.66 488.845 1073.84 489.116C1074.01 489.388 1074.38 489.466 1074.65 489.289C1074.92 489.113 1075 488.749 1074.82 488.477Z" fill="white"/>
<path opacity="0.11" d="M1099.9 502.305C1099.72 502.033 1099.36 501.956 1099.09 502.132C1098.81 502.309 1098.74 502.672 1098.91 502.944C1099.09 503.216 1099.45 503.293 1099.73 503.117C1100 502.94 1100.08 502.577 1099.9 502.305Z" fill="white"/>
<path opacity="0.11" d="M1118.91 466.868C1118.73 466.596 1118.37 466.518 1118.09 466.695C1117.82 466.871 1117.75 467.235 1117.92 467.507C1118.1 467.779 1118.46 467.856 1118.73 467.679C1119.01 467.503 1119.08 467.139 1118.91 466.868Z" fill="white"/>
<path opacity="0.11" d="M1023.11 362.415C1022.94 362.143 1022.57 362.066 1022.3 362.243C1022.03 362.419 1021.95 362.782 1022.13 363.054C1022.31 363.326 1022.67 363.404 1022.94 363.227C1023.21 363.051 1023.29 362.687 1023.11 362.415Z" fill="white"/>
<path opacity="0.11" d="M1020.86 281.266C1020.68 280.994 1020.32 280.917 1020.05 281.093C1019.78 281.27 1019.7 281.633 1019.87 281.905C1020.05 282.177 1020.41 282.254 1020.69 282.078C1020.96 281.901 1021.04 281.538 1020.86 281.266Z" fill="white"/>
<path opacity="0.11" d="M954.552 189.875C954.375 189.603 954.012 189.526 953.74 189.702C953.468 189.879 953.391 190.243 953.567 190.514C953.744 190.786 954.107 190.864 954.379 190.687C954.651 190.511 954.728 190.147 954.552 189.875Z" fill="white"/>
<path opacity="0.3" d="M1069.61 449.157C1069.43 448.885 1069.07 448.808 1068.79 448.984C1068.52 449.161 1068.44 449.524 1068.62 449.796C1068.8 450.068 1069.16 450.146 1069.43 449.969C1069.7 449.793 1069.78 449.429 1069.61 449.157Z" fill="white"/>
<path d="M969.475 353.118C969.298 352.847 968.935 352.769 968.663 352.946C968.391 353.122 968.314 353.486 968.49 353.758C968.666 354.03 969.03 354.107 969.302 353.93C969.574 353.754 969.651 353.39 969.475 353.118Z" fill="white"/>
<path d="M919.256 277.891C919.08 277.62 918.716 277.542 918.444 277.719C918.172 277.895 918.095 278.259 918.271 278.531C918.448 278.803 918.811 278.88 919.083 278.703C919.355 278.527 919.433 278.163 919.256 277.891Z" fill="white"/>
<path d="M1036.54 357.204C1036.36 356.932 1036 356.855 1035.73 357.032C1035.45 357.208 1035.38 357.572 1035.55 357.844C1035.73 358.115 1036.09 358.193 1036.36 358.016C1036.64 357.84 1036.71 357.476 1036.54 357.204Z" fill="white"/>
<path opacity="0.3" d="M1058.92 391.688C1058.74 391.416 1058.38 391.339 1058.1 391.516C1057.83 391.692 1057.75 392.055 1057.93 392.327C1058.11 392.599 1058.47 392.677 1058.74 392.5C1059.01 392.324 1059.09 391.96 1058.92 391.688Z" fill="white"/>
<path opacity="0.11" d="M1054.59 451.899C1054.41 451.627 1054.05 451.55 1053.77 451.726C1053.5 451.903 1053.42 452.266 1053.6 452.538C1053.78 452.81 1054.14 452.888 1054.41 452.711C1054.68 452.535 1054.76 452.171 1054.59 451.899Z" fill="white"/>
<path opacity="0.3" d="M975.541 336.571C975.365 336.299 975.001 336.222 974.729 336.398C974.457 336.575 974.38 336.938 974.556 337.21C974.733 337.482 975.096 337.56 975.368 337.383C975.64 337.207 975.718 336.843 975.541 336.571Z" fill="white"/>
<path opacity="0.3" d="M1040.46 342.75C1040.28 342.478 1039.92 342.401 1039.65 342.577C1039.38 342.754 1039.3 343.118 1039.48 343.389C1039.65 343.661 1040.02 343.739 1040.29 343.562C1040.56 343.386 1040.64 343.022 1040.46 342.75Z" fill="white"/>
<path opacity="0.3" d="M1084.07 399.165C1083.89 398.893 1083.53 398.816 1083.26 398.993C1082.99 399.169 1082.91 399.532 1083.09 399.804C1083.26 400.076 1083.63 400.154 1083.9 399.977C1084.17 399.801 1084.25 399.437 1084.07 399.165Z" fill="white"/>
<path opacity="0.3" d="M1060.34 434.868C1060.16 434.596 1059.8 434.519 1059.53 434.695C1059.25 434.872 1059.18 435.235 1059.35 435.507C1059.53 435.779 1059.89 435.856 1060.16 435.68C1060.44 435.503 1060.51 435.14 1060.34 434.868Z" fill="white"/>
<path opacity="0.3" d="M860.009 129.415C859.832 129.143 859.469 129.066 859.197 129.243C858.925 129.419 858.848 129.782 859.024 130.054C859.201 130.326 859.564 130.404 859.836 130.227C860.108 130.051 860.185 129.687 860.009 129.415Z" fill="white"/>
<path opacity="0.11" d="M891.281 221.836C891.104 221.564 890.74 221.487 890.469 221.663C890.197 221.84 890.119 222.203 890.296 222.475C890.472 222.747 890.836 222.825 891.108 222.648C891.38 222.472 891.457 222.108 891.281 221.836Z" fill="white"/>
<path opacity="0.11" d="M889.821 128.969C889.644 128.697 889.281 128.62 889.009 128.796C888.737 128.973 888.659 129.336 888.836 129.608C889.012 129.88 889.376 129.958 889.648 129.781C889.92 129.605 889.997 129.241 889.821 128.969Z" fill="white"/>
<path opacity="0.3" d="M975.14 250.728C974.787 250.184 974.059 250.029 973.515 250.382C972.971 250.735 972.816 251.463 973.169 252.007C973.522 252.552 974.25 252.707 974.794 252.354C975.339 252 975.493 251.273 975.14 250.728Z" fill="white"/>
<path opacity="0.11" d="M941.5 231.251C941.146 230.707 940.419 230.552 939.874 230.905C939.33 231.258 939.175 231.986 939.528 232.53C939.882 233.075 940.609 233.23 941.154 232.876C941.698 232.523 941.853 231.796 941.5 231.251Z" fill="white"/>
<path d="M924.416 242.684C924.152 242.276 923.606 242.16 923.198 242.425C922.79 242.69 922.674 243.235 922.938 243.643C923.203 244.051 923.749 244.168 924.157 243.903C924.565 243.638 924.681 243.092 924.416 242.684Z" fill="white"/>
<path d="M998.202 243.106C997.937 242.698 997.391 242.582 996.983 242.847C996.575 243.111 996.459 243.657 996.724 244.065C996.988 244.473 997.534 244.589 997.942 244.325C998.35 244.06 998.466 243.514 998.202 243.106Z" fill="white"/>
<path d="M901.915 73.1612C901.651 72.753 901.105 72.6369 900.697 72.9018C900.289 73.1666 900.173 73.7122 900.437 74.1204C900.702 74.5285 901.248 74.6447 901.656 74.3798C902.064 74.1149 902.18 73.5693 901.915 73.1612Z" fill="white"/>
<path d="M1101.02 398.317C1100.76 397.909 1100.21 397.793 1099.8 398.058C1099.4 398.322 1099.28 398.868 1099.54 399.276C1099.81 399.684 1100.36 399.8 1100.76 399.536C1101.17 399.271 1101.29 398.725 1101.02 398.317Z" fill="white"/>
<path d="M1132.21 471.185C1131.95 470.776 1131.4 470.66 1130.99 470.925C1130.58 471.19 1130.47 471.736 1130.73 472.144C1131 472.552 1131.54 472.668 1131.95 472.403C1132.36 472.138 1132.48 471.593 1132.21 471.185Z" fill="white"/>
<path d="M1117.94 492.348C1117.68 491.94 1117.13 491.824 1116.72 492.089C1116.31 492.354 1116.2 492.899 1116.46 493.307C1116.73 493.716 1117.27 493.832 1117.68 493.567C1118.09 493.302 1118.21 492.756 1117.94 492.348Z" fill="white"/>
<path d="M949.615 259.934C949.35 259.526 948.804 259.41 948.396 259.675C947.988 259.94 947.872 260.485 948.137 260.893C948.401 261.301 948.947 261.418 949.355 261.153C949.763 260.888 949.88 260.342 949.615 259.934Z" fill="white"/>
<path d="M1041.69 321.997C1041.43 321.589 1040.88 321.473 1040.48 321.738C1040.07 322.003 1039.95 322.548 1040.22 322.956C1040.48 323.364 1041.03 323.481 1041.44 323.216C1041.84 322.951 1041.96 322.405 1041.69 321.997Z" fill="white"/>
<path d="M982.316 184.106C982.051 183.698 981.505 183.582 981.097 183.847C980.689 184.111 980.573 184.657 980.838 185.065C981.103 185.473 981.648 185.589 982.056 185.325C982.465 185.06 982.581 184.514 982.316 184.106Z" fill="white"/>
<path d="M864.097 75.3018C863.832 74.8937 863.287 74.7775 862.878 75.0424C862.47 75.3073 862.354 75.8528 862.619 76.261C862.884 76.6691 863.43 76.7853 863.838 76.5204C864.246 76.2555 864.362 75.71 864.097 75.3018Z" fill="white"/>
<path d="M829.33 81.0586C829.066 80.6505 828.52 80.5344 828.112 80.7992C827.704 81.0641 827.588 81.6097 827.852 82.0178C828.117 82.426 828.663 82.5421 829.071 82.2772C829.479 82.0124 829.595 81.4668 829.33 81.0586Z" fill="white"/>
<path opacity="0.3" d="M898.533 201.728C898.18 201.184 897.452 201.029 896.908 201.382C896.363 201.735 896.208 202.463 896.562 203.007C896.915 203.552 897.642 203.707 898.187 203.354C898.731 203 898.886 202.273 898.533 201.728Z" fill="white"/>
<path d="M863.558 224.423C863.205 223.879 862.477 223.724 861.933 224.077C861.389 224.43 861.234 225.158 861.587 225.702C861.94 226.247 862.668 226.402 863.212 226.048C863.757 225.695 863.911 224.967 863.558 224.423Z" fill="white"/>
<path d="M892.908 169.317C892.643 168.909 892.097 168.793 891.689 169.058C891.281 169.322 891.165 169.868 891.43 170.276C891.694 170.684 892.24 170.8 892.648 170.536C893.056 170.271 893.173 169.725 892.908 169.317Z" fill="white"/>
<path opacity="0.3" d="M858.189 157.892C857.836 157.348 857.108 157.193 856.564 157.546C856.019 157.9 855.865 158.627 856.218 159.172C856.571 159.716 857.299 159.871 857.843 159.518C858.387 159.164 858.542 158.437 858.189 157.892Z" fill="white"/>
<path opacity="0.3" d="M861.516 86.4226C861.163 85.8782 860.435 85.7233 859.891 86.0766C859.347 86.4299 859.192 87.1575 859.545 87.7019C859.898 88.2462 860.626 88.4011 861.17 88.0479C861.715 87.6946 861.869 86.9669 861.516 86.4226Z" fill="white"/>
<path opacity="0.3" d="M899.905 143.423C899.552 142.879 898.824 142.724 898.28 143.077C897.735 143.43 897.58 144.158 897.934 144.702C898.287 145.247 899.015 145.402 899.559 145.048C900.103 144.695 900.258 143.967 899.905 143.423Z" fill="white"/>
<path opacity="0.3" d="M1091.78 420.759C1091.43 420.215 1090.7 420.06 1090.16 420.413C1089.61 420.766 1089.46 421.494 1089.81 422.038C1090.17 422.583 1090.89 422.738 1091.44 422.384C1091.98 422.031 1092.14 421.303 1091.78 420.759Z" fill="white"/>
<path opacity="0.3" d="M1090.59 478.251C1090.23 477.707 1089.51 477.552 1088.96 477.905C1088.42 478.258 1088.26 478.986 1088.62 479.53C1088.97 480.075 1089.7 480.23 1090.24 479.876C1090.79 479.523 1090.94 478.796 1090.59 478.251Z" fill="white"/>
<path opacity="0.11" d="M859.845 116.212C859.492 115.668 858.764 115.513 858.22 115.866C857.676 116.219 857.521 116.947 857.874 117.491C858.227 118.036 858.955 118.191 859.499 117.837C860.044 117.484 860.199 116.756 859.845 116.212Z" fill="white"/>
<path opacity="0.3" d="M1028.12 418.673C1027.77 418.129 1027.04 417.974 1026.5 418.327C1025.95 418.68 1025.8 419.408 1026.15 419.952C1026.5 420.497 1027.23 420.652 1027.78 420.298C1028.32 419.945 1028.47 419.217 1028.12 418.673Z" fill="white"/>
<path opacity="0.11" d="M1026.9 438.368C1026.55 437.824 1025.82 437.669 1025.28 438.022C1024.73 438.376 1024.58 439.103 1024.93 439.648C1025.28 440.192 1026.01 440.347 1026.55 439.994C1027.1 439.64 1027.25 438.913 1026.9 438.368Z" fill="white"/>
<path opacity="0.3" d="M1060.98 421.845C1060.63 421.301 1059.9 421.146 1059.36 421.499C1058.82 421.852 1058.66 422.58 1059.01 423.124C1059.37 423.669 1060.09 423.823 1060.64 423.47C1061.18 423.117 1061.34 422.389 1060.98 421.845Z" fill="white"/>
<path d="M1040.51 391.38C1040.25 390.972 1039.7 390.856 1039.29 391.121C1038.89 391.386 1038.77 391.931 1039.03 392.34C1039.3 392.748 1039.84 392.864 1040.25 392.599C1040.66 392.334 1040.78 391.789 1040.51 391.38Z" fill="white"/>
</g>
</g>
<mask id="path-110-inside-1_1347_20410" fill="white">
<path d="M1136.79 325C740.92 325 420 4.07994 420 -391.795L420 -1006.21C420 -1402.08 740.92 -1723 1136.8 -1723V-1723C1532.67 -1723 1853.59 -1402.08 1853.59 -1006.2L1853.59 -391.795C1853.59 4.08002 1532.67 325 1136.79 325V325Z"/>
</mask>
<path d="M1136.79 325C740.92 325 420 4.07994 420 -391.795L420 -1006.21C420 -1402.08 740.92 -1723 1136.8 -1723V-1723C1532.67 -1723 1853.59 -1402.08 1853.59 -1006.2L1853.59 -391.795C1853.59 4.08002 1532.67 325 1136.79 325V325Z" fill="#000212"/>
<path d="M1136.79 325C740.368 325 419 3.63224 419 -392.795L419 -1005.21C419 -1401.63 740.368 -1723 1136.8 -1723C741.472 -1723 421 -1402.08 421 -1006.21L421 -391.795C421 4.07995 741.472 325 1136.79 325ZM1853.59 -1723L1853.59 325L1853.59 -1723ZM1853.59 325L420 325L1853.59 325ZM420 -1723L1853.59 -1723L420 -1723Z" fill="#4E5BD9" fill-opacity="0.4" mask="url(#path-110-inside-1_1347_20410)"/>
</g>
<defs>
<radialGradient id="paint0_radial_1347_20410" cx="0" cy="0" r="1" gradientUnits="userSpaceOnUse" gradientTransform="translate(2044 925) scale(593.417 593.417)">
<stop/>
<stop offset="0.8" stop-opacity="0"/>
</radialGradient>
<radialGradient id="paint1_radial_1347_20410" cx="0" cy="0" r="1" gradientUnits="userSpaceOnUse" gradientTransform="translate(2169 1724) scale(788.761 1121.36)">
<stop stop-color="#4E5CDA"/>
<stop offset="0.7" stop-opacity="0"/>
</radialGradient>
<radialGradient id="paint2_radial_1347_20410" cx="0" cy="0" r="1" gradientUnits="userSpaceOnUse" gradientTransform="translate(1221.5 1644) scale(851.15 851.15)">
<stop/>
<stop offset="1" stop-opacity="0"/>
</radialGradient>
<clipPath id="clip0_1347_20410">
<rect width="872" height="731" fill="white" transform="translate(785.5 913) rotate(-90)"/>
</clipPath>
</defs>
</svg>
