<svg width="100" height="60" viewBox="0 0 1000 324" fill="none" xmlns="http://www.w3.org/2000/svg">
<path d="M75.158 247.816C56.214 247.816 40.2567 239.88 27.286 224.008C14.3153 208.136 7.82999 188.68 7.82999 165.64C7.82999 137.48 15.5953 113.757 31.126 94.472C46.8273 75.1867 66.0273 65.544 88.726 65.544C97.6007 65.544 105.793 66.4827 113.302 68.36C120.982 70.0667 126.443 71.8587 129.686 73.736L134.294 76.552L116.886 112.136C112.961 108.723 107.414 105.565 100.246 102.664C93.078 99.592 86.5927 98.056 80.79 98.056C69.014 98.056 59.542 102.92 52.374 112.648C45.3767 122.376 41.878 136.285 41.878 154.376C41.878 172.296 45.5473 187.059 52.886 198.664C60.2247 210.099 70.2087 215.816 82.838 215.816C91.03 215.816 98.454 213.256 105.11 208.136C111.766 203.016 116.459 196.189 119.19 187.656L140.438 199.944C134.806 214.963 126.187 226.739 114.582 235.272C102.977 243.635 89.8353 247.816 75.158 247.816ZM201.778 218.888C206.727 218.888 211.933 217.608 217.394 215.048C222.855 212.488 227.122 209.928 230.194 207.368L234.802 203.528L246.578 217.864C244.871 220.765 242.226 224.093 238.642 227.848C235.058 231.603 231.389 234.845 227.634 237.576C224.05 240.136 219.186 242.525 213.042 244.744C207.069 246.792 200.839 247.816 194.354 247.816C180.53 247.816 169.266 242.611 160.562 232.2C151.858 221.619 147.506 208.051 147.506 191.496C147.506 170.675 153.565 152.413 165.682 136.712C177.799 121.011 191.965 113.16 208.178 113.16C220.637 113.16 230.279 116.659 237.106 123.656C244.103 130.653 247.602 140.467 247.602 153.096C247.602 160.605 246.322 169.139 243.762 178.696L238.642 184.072L174.642 189.96C177.543 209.245 186.589 218.888 201.778 218.888ZM201.778 139.528C194.269 139.528 187.954 142.6 182.834 148.744C177.714 154.717 174.727 162.397 173.874 171.784L217.394 166.408C217.906 162.483 218.162 159.24 218.162 156.68C218.162 145.245 212.701 139.528 201.778 139.528ZM266.832 121.352L297.808 114.696C299.344 127.837 300.368 140.296 300.88 152.072C316.411 128.008 331.003 115.976 344.656 115.976L341.84 155.912C331.941 155.912 324.091 156.851 318.288 158.728C312.656 160.435 306.853 163.933 300.88 169.224V178.44L303.696 238.6L269.392 245L272.464 182.792C271.781 159.923 269.904 139.443 266.832 121.352ZM370.582 121.096V93.192L405.142 86.536L401.814 121.096H432.79L429.974 142.088H400.79L399.51 195.592C399.51 203.613 400.278 208.989 401.814 211.72C403.35 214.28 406.166 215.56 410.262 215.56C414.358 215.56 419.819 214.621 426.646 212.744L428.182 230.92C416.918 240.307 407.019 245 398.486 245C389.953 245 382.955 241.928 377.494 235.784C372.033 229.469 369.302 221.277 369.302 211.208L370.838 182.536L370.582 142.088H352.918L355.734 121.096H370.582ZM485.602 114.696L482.53 178.44L485.346 238.6L451.042 245L454.114 182.792L451.298 121.096L485.602 114.696ZM449.506 77.32C449.506 71.5173 451.725 66.3973 456.162 61.96C460.599 57.352 465.719 55.048 471.522 55.048C477.325 55.048 481.762 56.6693 484.834 59.912C487.906 62.984 489.442 67.6773 489.442 73.992C489.442 80.3067 487.223 85.768 482.786 90.376C478.519 94.8133 473.485 97.032 467.682 97.032C462.05 97.032 457.613 95.1547 454.37 91.4C451.127 87.6453 449.506 82.952 449.506 77.32ZM581.85 78.344C575.535 76.808 569.818 76.04 564.698 76.04C559.578 76.04 555.823 77.576 553.434 80.648C551.215 83.72 550.106 89.096 550.106 96.776L549.85 121.096H577.498L574.682 142.088H549.85L549.594 178.44L552.41 238.6L517.85 245L520.922 182.792L519.898 142.088H503.002L505.818 121.096H519.386L519.13 101.64C519.13 86.4507 523.823 73.5653 533.21 62.984C542.597 52.232 554.031 46.856 567.514 46.856C574.682 46.856 582.106 47.624 589.786 49.16L581.85 78.344ZM594.282 294.408L620.65 235.272L601.706 183.56L575.85 121.352L609.898 114.952L626.282 169.48L634.73 195.336H638.058L644.202 176.648L662.634 114.696L694.122 118.536L648.81 237.576L627.306 301.32L594.282 294.408Z" fill="#504B8E"/>
<g filter="url(#filter0_d_1208_3452)">
<path d="M464.486 52.0767C466.301 50.8262 468.699 50.8262 470.514 52.0767L472.297 53.305C473.459 54.105 474.89 54.4106 476.277 54.1545L478.657 53.7151C480.992 53.2838 483.33 54.4548 484.384 56.5835L484.675 57.1729C485.397 58.632 486.748 59.6795 488.341 60.0154L490.062 60.3782C492.423 60.8762 494.003 63.1083 493.688 65.5008V65.5008C493.467 67.1728 494.175 68.8322 495.536 69.8292L495.921 70.1119C498.004 71.6382 498.349 74.6269 496.697 76.6111V76.6111C495.619 77.9063 495.363 79.7163 496.056 81.2525V81.2525C497.064 83.4883 496.052 86.1171 493.804 87.099L492.766 87.5527C491.186 88.2428 490.06 89.6817 489.77 91.3809V91.3809C489.354 93.8159 487.258 95.6063 484.788 95.6368L482.684 95.6627C481.19 95.6812 479.772 96.3282 478.779 97.4452L477.769 98.5805C476.276 100.261 473.886 100.819 471.802 99.9741L469.496 99.0392C468.216 98.5202 466.784 98.5202 465.504 99.0392L463.198 99.9741C461.114 100.819 458.724 100.261 457.231 98.5805L456.221 97.4452C455.228 96.3282 453.81 95.6812 452.316 95.6627L450.212 95.6368C447.742 95.6063 445.646 93.8159 445.23 91.3809V91.3809C444.94 89.6817 443.814 88.2428 442.234 87.5527L441.196 87.099C438.948 86.1171 437.936 83.4883 438.944 81.2525V81.2525C439.637 79.7163 439.381 77.9063 438.303 76.6111V76.6111C436.651 74.6269 436.996 71.6382 439.079 70.1119L439.464 69.8292C440.825 68.8322 441.533 67.1728 441.312 65.5008V65.5008C440.997 63.1083 442.577 60.8762 444.938 60.3782L446.659 60.0154C448.252 59.6795 449.603 58.632 450.325 57.1729L450.616 56.5835C451.67 54.4548 454.008 53.2838 456.343 53.7151L458.723 54.1545C460.11 54.4106 461.541 54.105 462.703 53.305L464.486 52.0767Z" fill="url(#paint0_linear_1208_3452)"/>
<ellipse cx="467.475" cy="75.9404" rx="22.8801" ry="18.3535" fill="#705100"/>
<mask id="mask0_1208_3452" style="mask-type:alpha" maskUnits="userSpaceOnUse" x="445" y="59" width="47" height="38">
<ellipse cx="468.697" cy="77.8992" rx="22.9333" ry="18.3962" fill="#C28B37"/>
</mask>
<g mask="url(#mask0_1208_3452)">
<ellipse cx="467.475" cy="75.9402" rx="22.9333" ry="18.3962" fill="#DBA007"/>
</g>
<ellipse cx="467.832" cy="76.1593" rx="17.1424" ry="13.984" fill="#A36D1D"/>
<ellipse opacity="0.8" cx="467.832" cy="75.9266" rx="15.9802" ry="12.8187" fill="url(#paint1_linear_1208_3452)"/>
<ellipse cx="468.123" cy="75.9261" rx="9.29756" ry="7.69121" fill="#B5760C"/>
<ellipse opacity="0.8" cx="468.123" cy="75.4606" rx="8.13536" ry="6.75894" fill="url(#paint2_linear_1208_3452)"/>
</g>
<defs>
<filter id="filter0_d_1208_3452" x="436.476" y="50.3552" width="73.0174" height="61.7611" filterUnits="userSpaceOnUse" color-interpolation-filters="sRGB">
<feFlood flood-opacity="0" result="BackgroundImageFix"/>
<feColorMatrix in="SourceAlpha" type="matrix" values="0 0 0 0 0 0 0 0 0 0 0 0 0 0 0 0 0 0 127 0" result="hardAlpha"/>
<feOffset dx="5.48449" dy="5.48449"/>
<feGaussianBlur stdDeviation="3.13399"/>
<feComposite in2="hardAlpha" operator="out"/>
<feColorMatrix type="matrix" values="0 0 0 0 0 0 0 0 0 0 0 0 0 0 0 0 0 0 0.3 0"/>
<feBlend mode="normal" in2="BackgroundImageFix" result="effect1_dropShadow_1208_3452"/>
<feBlend mode="normal" in="SourceGraphic" in2="effect1_dropShadow_1208_3452" result="shape"/>
</filter>
<linearGradient id="paint0_linear_1208_3452" x1="467.5" y1="50" x2="467.5" y2="102.141" gradientUnits="userSpaceOnUse">
<stop stop-color="#FFD951"/>
<stop offset="1" stop-color="#A96500"/>
</linearGradient>
<linearGradient id="paint1_linear_1208_3452" x1="467.832" y1="63.1079" x2="467.832" y2="88.7453" gradientUnits="userSpaceOnUse">
<stop stop-color="#D79B00"/>
<stop offset="1" stop-color="#FFDD64"/>
</linearGradient>
<linearGradient id="paint2_linear_1208_3452" x1="468.123" y1="68.7017" x2="468.123" y2="82.2195" gradientUnits="userSpaceOnUse">
<stop offset="0.0001" stop-color="#FFDA95"/>
<stop offset="0.0002" stop-color="#FFE2A9"/>
<stop offset="1" stop-color="#E6D224"/>
</linearGradient>
</defs>
</svg>
