<svg width="176" height="26" viewBox="0 0 176 26" fill="none" xmlns="http://www.w3.org/2000/svg">
<path d="M11.792 6.344H4.976L4.784 12.232H10.896L10.544 15.624H4.688L4.656 16.68L5.04 25H0.56L0.944 17.224L0.56 2.92H12.144L11.792 6.344ZM19.6763 21.736C20.2949 21.736 20.9456 21.576 21.6283 21.256C22.3109 20.936 22.8443 20.616 23.2283 20.296L23.8043 19.816L25.2763 21.608C25.0629 21.9707 24.7323 22.3867 24.2843 22.856C23.8363 23.3253 23.3776 23.7307 22.9083 24.072C22.4603 24.392 21.8523 24.6907 21.0843 24.968C20.3376 25.224 19.5589 25.352 18.7483 25.352C17.0203 25.352 15.6123 24.7013 14.5243 23.4C13.4363 22.0773 12.8923 20.3813 12.8923 18.312C12.8923 15.7093 13.6496 13.4267 15.1643 11.464C16.6789 9.50133 18.4496 8.52 20.4763 8.52C22.0336 8.52 23.2389 8.95733 24.0923 9.832C24.9669 10.7067 25.4043 11.9333 25.4043 13.512C25.4043 14.4507 25.2443 15.5173 24.9243 16.712L24.2843 17.384L16.2843 18.12C16.6469 20.5307 17.7776 21.736 19.6763 21.736ZM19.6763 11.816C18.7376 11.816 17.9483 12.2 17.3083 12.968C16.6683 13.7147 16.2949 14.6747 16.1883 15.848L21.6283 15.176C21.6923 14.6853 21.7243 14.28 21.7243 13.96C21.7243 12.5307 21.0416 11.816 19.6763 11.816ZM33.8615 21.736C34.4802 21.736 35.1308 21.576 35.8135 21.256C36.4962 20.936 37.0295 20.616 37.4135 20.296L37.9895 19.816L39.4615 21.608C39.2482 21.9707 38.9175 22.3867 38.4695 22.856C38.0215 23.3253 37.5628 23.7307 37.0935 24.072C36.6455 24.392 36.0375 24.6907 35.2695 24.968C34.5228 25.224 33.7442 25.352 32.9335 25.352C31.2055 25.352 29.7975 24.7013 28.7095 23.4C27.6215 22.0773 27.0775 20.3813 27.0775 18.312C27.0775 15.7093 27.8348 13.4267 29.3495 11.464C30.8642 9.50133 32.6348 8.52 34.6615 8.52C36.2188 8.52 37.4242 8.95733 38.2775 9.832C39.1522 10.7067 39.5895 11.9333 39.5895 13.512C39.5895 14.4507 39.4295 15.5173 39.1095 16.712L38.4695 17.384L30.4695 18.12C30.8322 20.5307 31.9628 21.736 33.8615 21.736ZM33.8615 11.816C32.9228 11.816 32.1335 12.2 31.4935 12.968C30.8535 13.7147 30.4802 14.6747 30.3735 15.848L35.8135 15.176C35.8775 14.6853 35.9095 14.28 35.9095 13.96C35.9095 12.5307 35.2268 11.816 33.8615 11.816ZM50.7348 21.864C49.0708 23.9547 47.6308 25 46.4148 25C44.9001 25 43.6521 24.3813 42.6708 23.144C41.7108 21.9067 41.2308 20.3173 41.2308 18.376C41.2308 15.7093 41.9668 13.4587 43.4388 11.624C44.9321 9.78933 46.7561 8.872 48.9108 8.872L50.7028 9.128V8.52L50.3188 1.032L54.7028 0.231998L54.2868 16.68V19.496C54.2868 20.776 54.6068 22.248 55.2468 23.912L51.7908 25.352C51.1721 24.072 50.8201 22.9093 50.7348 21.864ZM44.8148 16.712C44.8148 18.0773 45.0601 19.144 45.5508 19.912C46.0628 20.68 46.7881 21.064 47.7268 21.064C48.6868 21.064 49.6788 20.68 50.7028 19.912V13C49.4228 12.744 48.4734 12.616 47.8548 12.616C46.8948 12.616 46.1481 12.9573 45.6148 13.64C45.0814 14.3227 44.8148 15.3467 44.8148 16.712ZM66.7333 8.84C68.1626 8.84 69.3253 9.45867 70.2213 10.696C71.1173 11.9333 71.5653 13.5227 71.5653 15.464C71.5653 18.2587 70.8293 20.552 69.3573 22.344C67.9066 24.1147 66.0186 25 63.6933 25C62.6266 25 60.8346 24.8293 58.3173 24.488L58.6373 17.224L58.2533 1.032L62.6373 0.231998L62.2213 8.488V11.944C62.4559 11.6027 62.7439 11.24 63.0853 10.856C63.4266 10.472 63.9599 10.0453 64.6853 9.576C65.4106 9.08533 66.0933 8.84 66.7333 8.84ZM65.4853 13C64.5039 13 63.4159 13.2987 62.2213 13.896V16.68L62.4133 21.384C63.3093 21.4907 64.1519 21.544 64.9413 21.544C66.9893 21.544 68.0133 20.1253 68.0133 17.288C68.0133 14.4293 67.1706 13 65.4853 13ZM77.326 25C76.0673 25 75.0327 24.6053 74.222 23.816C73.4327 23.0053 73.038 21.928 73.038 20.584C73.038 19.2187 73.6567 18.0453 74.894 17.064C76.1313 16.0613 77.6353 15.56 79.406 15.56H81.582V15.016C81.582 13.9707 81.3687 13.256 80.942 12.872C80.5153 12.488 79.7153 12.296 78.542 12.296C78.0513 12.296 77.4647 12.4027 76.782 12.616C76.1207 12.808 75.374 13.1173 74.542 13.544L73.614 11.016C74.5313 10.376 75.6407 9.8 76.942 9.288C78.2647 8.776 79.3527 8.52 80.206 8.52C83.5553 8.52 85.23 10.1413 85.23 13.384V19.656C85.23 20.8507 85.6033 22.184 86.35 23.656L82.958 25.096C82.4247 24.072 82.03 23.1547 81.774 22.344C80.6007 24.1147 79.118 25 77.326 25ZM78.67 21.736C79.5233 21.736 80.494 21.2987 81.582 20.424V18.28C80.4513 18.024 79.534 17.896 78.83 17.896C77.486 17.896 76.814 18.4933 76.814 19.688C76.814 20.3067 76.9847 20.808 77.326 21.192C77.6673 21.5547 78.1153 21.736 78.67 21.736ZM94.534 12.68C93.5953 12.68 92.87 13.0213 92.358 13.704C91.846 14.3653 91.59 15.3893 91.59 16.776C91.59 18.1627 91.846 19.2827 92.358 20.136C92.8913 20.968 93.6593 21.384 94.662 21.384C95.174 21.384 95.6753 21.224 96.166 20.904C96.6567 20.584 97.03 20.264 97.286 19.944L97.638 19.432L99.238 21.096C99.174 21.2027 99.0887 21.352 98.982 21.544C98.8967 21.736 98.662 22.0773 98.278 22.568C97.9153 23.0587 97.5207 23.496 97.094 23.88C96.6887 24.2427 96.1553 24.584 95.494 24.904C94.8327 25.2027 94.1393 25.352 93.414 25.352C91.814 25.352 90.5127 24.7013 89.51 23.4C88.5073 22.0987 88.006 20.4027 88.006 18.312C88.006 15.7093 88.7633 13.4267 90.278 11.464C91.7927 9.50133 93.5633 8.52 95.59 8.52C96.2087 8.52 96.8273 8.616 97.446 8.808C98.0647 8.97867 98.694 9.256 99.334 9.64L97.094 13.576C96.326 12.9787 95.4727 12.68 94.534 12.68ZM111.231 25.32L105.215 16.456V16.68L105.567 24.2L101.247 25L101.631 17.224L101.247 1.032L105.631 0.231998L105.215 15.688L111.615 8.68L114.623 10.728L109.023 15.976L114.879 22.888L111.231 25.32ZM128.524 6.344H121.708L121.516 12.232H127.628L127.276 15.624H121.42L121.388 16.68L121.772 25H117.292L117.676 17.224L117.292 2.92H128.876L128.524 6.344ZM135.032 0.231998L134.616 16.68L134.968 24.2L130.648 25L131.032 17.224L130.648 1.032L135.032 0.231998ZM137.686 18.312C137.686 15.5813 138.422 13.2667 139.894 11.368C141.366 9.46933 143.083 8.52 145.046 8.52C147.03 8.52 148.566 9.16 149.654 10.44C150.763 11.72 151.318 13.416 151.318 15.528C151.318 18.344 150.603 20.6907 149.174 22.568C147.766 24.424 145.985 25.352 143.83 25.352C142.059 25.352 140.587 24.6907 139.414 23.368C138.262 22.024 137.686 20.3387 137.686 18.312ZM147.734 17.192C147.734 14.0987 146.678 12.552 144.566 12.552C142.369 12.552 141.27 14.0027 141.27 16.904C141.27 18.4187 141.579 19.6027 142.198 20.456C142.817 21.3093 143.627 21.736 144.63 21.736C145.654 21.736 146.422 21.352 146.934 20.584C147.467 19.7947 147.734 18.664 147.734 17.192ZM168.26 21H168.676L169.7 16.616L171.364 8.712L175.268 9.192L172.932 17.128L170.98 24.616L165.732 25.096L163.972 17.32L163.812 16.808L161.668 24.616L156.58 25.096L154.724 17.32L152.516 9.544L156.708 8.744L158.02 15.784L159.172 21H159.588L162.34 11.88L161.668 9.544L165.796 8.744L167.14 15.784L168.26 21Z" fill="black"/>
</svg>
