<svg width="18" height="23" viewBox="0 0 18 23" fill="none" xmlns="http://www.w3.org/2000/svg">
<path d="M11.792 4.344H4.976L4.784 10.232H10.896L10.544 13.624H4.688L4.656 14.68L5.04 23H0.56L0.944 15.224L0.56 0.919998H12.144L11.792 4.344ZM17.2603 12.584C16.8656 12.488 16.5083 12.44 16.1883 12.44C15.8683 12.44 15.6336 12.536 15.4843 12.728C15.3456 12.92 15.2763 13.256 15.2763 13.736L15.2603 15.256H16.9883L16.8123 16.568H15.2603L15.2443 18.84L15.4203 22.6L13.2603 23L13.4523 19.112L13.3883 16.568H12.3323L12.5083 15.256H13.3563L13.3403 14.04C13.3403 13.0907 13.6336 12.2853 14.2203 11.624C14.8069 10.952 15.5216 10.616 16.3643 10.616C16.8123 10.616 17.2763 10.664 17.7563 10.76L17.2603 12.584Z" fill="black"/>
</svg>
