<svg width="153" height="30" viewBox="0 0 153 30" fill="none" xmlns="http://www.w3.org/2000/svg">
<path d="M0.56 23L0.944 15.224L0.56 1.56L5.104 0.759998L4.656 14.68L4.88 19.864L11.44 19.352L11.088 23H0.56ZM21.929 6.84C23.2943 6.84 24.4357 7.43733 25.353 8.632C26.2917 9.82667 26.761 11.4373 26.761 13.464C26.761 16.3013 26.025 18.6053 24.553 20.376C23.1023 22.1253 21.289 23 19.113 23C18.665 23 18.1637 22.968 17.609 22.904L17.769 29.016L13.385 29.816L13.801 15.224H13.833C13.7477 12.3653 13.513 9.80533 13.129 7.544L17.001 6.712C17.129 7.84267 17.2357 8.96267 17.321 10.072C17.3637 9.96533 17.577 9.67733 17.961 9.208C18.3663 8.71733 18.953 8.20533 19.721 7.672C20.489 7.11733 21.225 6.84 21.929 6.84ZM20.681 11C19.5503 11 18.4517 11.3093 17.385 11.928V14.68L17.513 19.256C18.665 19.448 19.5397 19.544 20.137 19.544C22.185 19.544 23.209 18.1253 23.209 15.288C23.209 12.4293 22.3663 11 20.681 11ZM34.8243 10.68C33.8856 10.68 33.1603 11.0213 32.6483 11.704C32.1363 12.3653 31.8803 13.3893 31.8803 14.776C31.8803 16.1627 32.1363 17.2827 32.6483 18.136C33.1816 18.968 33.9496 19.384 34.9523 19.384C35.4643 19.384 35.9656 19.224 36.4563 18.904C36.9469 18.584 37.3203 18.264 37.5763 17.944L37.9283 17.432L39.5283 19.096C39.4643 19.2027 39.3789 19.352 39.2723 19.544C39.1869 19.736 38.9523 20.0773 38.5683 20.568C38.2056 21.0587 37.8109 21.496 37.3843 21.88C36.9789 22.2427 36.4456 22.584 35.7843 22.904C35.1229 23.2027 34.4296 23.352 33.7043 23.352C32.1043 23.352 30.8029 22.7013 29.8003 21.4C28.7976 20.0987 28.2963 18.4027 28.2963 16.312C28.2963 13.7093 29.0536 11.4267 30.5683 9.464C32.0829 7.50133 33.8536 6.52 35.8803 6.52C36.4989 6.52 37.1176 6.616 37.7363 6.808C38.3549 6.97867 38.9843 7.256 39.6243 7.64L37.3843 11.576C36.6163 10.9787 35.7629 10.68 34.8243 10.68ZM40.5768 16.312C40.5768 13.5813 41.3128 11.2667 42.7848 9.368C44.2568 7.46933 45.9741 6.52 47.9368 6.52C49.9208 6.52 51.4568 7.16 52.5448 8.44C53.6541 9.72 54.2088 11.416 54.2088 13.528C54.2088 16.344 53.4941 18.6907 52.0648 20.568C50.6568 22.424 48.8754 23.352 46.7208 23.352C44.9501 23.352 43.4781 22.6907 42.3048 21.368C41.1528 20.024 40.5768 18.3387 40.5768 16.312ZM50.6248 15.192C50.6248 12.0987 49.5688 10.552 47.4568 10.552C45.2594 10.552 44.1608 12.0027 44.1608 14.904C44.1608 16.4187 44.4701 17.6027 45.0888 18.456C45.7074 19.3093 46.5181 19.736 47.5208 19.736C48.5448 19.736 49.3128 19.352 49.8248 18.584C50.3581 17.7947 50.6248 16.664 50.6248 15.192ZM66.1583 14.904C66.1583 13.432 66.0303 12.4507 65.7743 11.96C65.5183 11.4693 64.9209 11.224 63.9823 11.224C63.0436 11.224 61.9769 11.5973 60.7823 12.344V14.68L61.1343 22.2L56.8463 23L57.2303 15.224C57.1449 12.3653 56.9103 9.80533 56.5263 7.544L60.3983 6.712C60.5476 7.94933 60.6543 9.15467 60.7183 10.328C61.0383 9.90133 61.4009 9.48533 61.8063 9.08C62.2116 8.65333 62.8516 8.184 63.7263 7.672C64.6009 7.13867 65.5183 6.872 66.4783 6.872C67.4596 6.872 68.2809 7.256 68.9423 8.024C69.6036 8.77067 69.9343 9.79467 69.9343 11.096L69.7423 14.68L70.0943 22.36L65.7743 23.16L66.1583 14.904ZM74.7802 7.512V4.024L79.1002 3.192L78.6842 7.512H82.5562L82.2042 10.136H78.5562L78.3962 16.824C78.3962 17.8267 78.4922 18.4987 78.6842 18.84C78.8762 19.16 79.2282 19.32 79.7402 19.32C80.2522 19.32 80.9349 19.2027 81.7882 18.968L81.9802 21.24C80.5722 22.4133 79.3349 23 78.2682 23C77.2016 23 76.3269 22.616 75.6442 21.848C74.9616 21.0587 74.6202 20.0347 74.6202 18.776L74.8122 15.192L74.7802 10.136H72.5722L72.9242 7.512H74.7802ZM90.5713 19.736C91.1899 19.736 91.8406 19.576 92.5233 19.256C93.2059 18.936 93.7393 18.616 94.1233 18.296L94.6993 17.816L96.1713 19.608C95.9579 19.9707 95.6273 20.3867 95.1793 20.856C94.7313 21.3253 94.2726 21.7307 93.8033 22.072C93.3553 22.392 92.7473 22.6907 91.9793 22.968C91.2326 23.224 90.4539 23.352 89.6433 23.352C87.9153 23.352 86.5073 22.7013 85.4193 21.4C84.3313 20.0773 83.7873 18.3813 83.7873 16.312C83.7873 13.7093 84.5446 11.4267 86.0593 9.464C87.5739 7.50133 89.3446 6.52 91.3713 6.52C92.9286 6.52 94.1339 6.95733 94.9873 7.832C95.8619 8.70667 96.2993 9.93333 96.2993 11.512C96.2993 12.4507 96.1393 13.5173 95.8193 14.712L95.1793 15.384L87.1793 16.12C87.5419 18.5307 88.6726 19.736 90.5713 19.736ZM90.5713 9.816C89.6326 9.816 88.8433 10.2 88.2033 10.968C87.5633 11.7147 87.1899 12.6747 87.0833 13.848L92.5233 13.176C92.5873 12.6853 92.6193 12.28 92.6193 11.96C92.6193 10.5307 91.9366 9.816 90.5713 9.816ZM108.277 14.904C108.277 13.432 108.149 12.4507 107.893 11.96C107.637 11.4693 107.039 11.224 106.101 11.224C105.162 11.224 104.095 11.5973 102.901 12.344V14.68L103.253 22.2L98.9645 23L99.3485 15.224C99.2632 12.3653 99.0285 9.80533 98.6445 7.544L102.517 6.712C102.666 7.94933 102.773 9.15467 102.837 10.328C103.157 9.90133 103.519 9.48533 103.925 9.08C104.33 8.65333 104.97 8.184 105.845 7.672C106.719 7.13867 107.637 6.872 108.597 6.872C109.578 6.872 110.399 7.256 111.061 8.024C111.722 8.77067 112.053 9.79467 112.053 11.096L111.861 14.68L112.213 22.36L107.893 23.16L108.277 14.904ZM116.899 7.512V4.024L121.219 3.192L120.803 7.512H124.675L124.323 10.136H120.675L120.515 16.824C120.515 17.8267 120.611 18.4987 120.803 18.84C120.995 19.16 121.347 19.32 121.859 19.32C122.371 19.32 123.053 19.2027 123.907 18.968L124.099 21.24C122.691 22.4133 121.453 23 120.387 23C119.32 23 118.445 22.616 117.763 21.848C117.08 21.0587 116.739 20.0347 116.739 18.776L116.931 15.192L116.899 10.136H114.691L115.043 7.512H116.899ZM140.562 23.16L138.994 16.92H131.346L129.65 23L125.554 22.68L128.37 14.904L132.658 1.144L138.386 0.727999L142.514 14.424L145.17 22.456L140.562 23.16ZM135.506 4.888H135.09L132.338 13.528H138.034L135.506 4.888ZM152.644 0.759998L152.196 14.68L152.58 23H148.1L148.484 15.224L148.1 1.56L152.644 0.759998Z" fill="black"/>
</svg>
