<svg width="153" height="25" viewBox="0 0 153 25" fill="none" xmlns="http://www.w3.org/2000/svg">
<path d="M16.496 10.708C16.496 11.572 16.28 12.364 15.848 13.084C15.44 13.804 14.876 14.38 14.156 14.812C13.436 15.244 12.632 15.46 11.744 15.46H5.12C4.832 15.46 4.688 15.616 4.688 15.928V23.344C4.688 23.8 4.52 24.196 4.184 24.532C3.872 24.844 3.488 25 3.032 25H2.06C1.604 25 1.208 24.844 0.872 24.532C0.56 24.196 0.404 23.8 0.404 23.344V2.32C0.404 1.84 0.56 1.444 0.872 1.132C1.208 0.819998 1.604 0.663998 2.06 0.663998H11.744C12.632 0.663998 13.436 0.879998 14.156 1.312C14.876 1.744 15.44 2.32 15.848 3.04C16.28 3.76 16.496 4.564 16.496 5.452V10.708ZM12.248 10.708V5.452C12.248 5.116 12.08 4.948 11.744 4.948H5.12C4.832 4.948 4.688 5.104 4.688 5.416V10.708C4.688 11.02 4.832 11.176 5.12 11.176H11.744C12.08 11.176 12.248 11.02 12.248 10.708ZM30.0812 9.016C30.0812 9.472 29.9252 9.856 29.6132 10.168C29.3012 10.48 28.9172 10.636 28.4612 10.636H24.1772C23.8652 10.636 23.7092 10.804 23.7092 11.14V23.344C23.7092 23.8 23.5412 24.196 23.2052 24.532C22.8932 24.844 22.5092 25 22.0532 25H21.0452C20.5892 25 20.2052 24.844 19.8932 24.532C19.5812 24.196 19.4252 23.8 19.4252 23.344V10.384C19.4252 9.64 19.6052 8.968 19.9652 8.368C20.3252 7.744 20.8052 7.252 21.4052 6.892C22.0052 6.532 22.6772 6.352 23.4212 6.352H28.4612C28.9172 6.352 29.3012 6.52 29.6132 6.856C29.9252 7.168 30.0812 7.564 30.0812 8.044V9.016ZM44.2337 20.968C44.2337 22.096 43.8377 23.056 43.0457 23.848C42.2777 24.616 41.3417 25 40.2377 25H35.2337C34.1297 25 33.1817 24.616 32.3897 23.848C31.5977 23.056 31.2017 22.096 31.2017 20.968V17.044C31.2017 16.3 31.3817 15.64 31.7417 15.064C32.1257 14.464 32.6177 13.984 33.2177 13.624C33.8177 13.264 34.4897 13.084 35.2337 13.084H39.4817C39.6017 13.084 39.7097 13.036 39.8057 12.94C39.9257 12.844 39.9857 12.724 39.9857 12.58V11.14C39.9857 10.996 39.9257 10.876 39.8057 10.78C39.7097 10.684 39.6017 10.636 39.4817 10.636H35.2337C34.7777 10.636 34.3817 10.48 34.0457 10.168C33.7337 9.856 33.5777 9.472 33.5777 9.016V8.044C33.5777 7.564 33.7337 7.168 34.0457 6.856C34.3817 6.52 34.7777 6.352 35.2337 6.352H40.2377C40.9817 6.352 41.6537 6.532 42.2537 6.892C42.8537 7.252 43.3337 7.744 43.6937 8.368C44.0537 8.968 44.2337 9.64 44.2337 10.384V20.968ZM39.9857 20.284V17.8C39.9857 17.68 39.9257 17.572 39.8057 17.476C39.7097 17.38 39.6017 17.332 39.4817 17.332H35.9897C35.8697 17.332 35.7497 17.38 35.6297 17.476C35.5337 17.572 35.4857 17.68 35.4857 17.8V20.284C35.4857 20.404 35.5337 20.512 35.6297 20.608C35.7497 20.704 35.8697 20.752 35.9897 20.752H39.4817C39.6017 20.752 39.7097 20.704 39.8057 20.608C39.9257 20.512 39.9857 20.404 39.9857 20.284ZM60.1947 20.968C60.1947 22.096 59.7987 23.056 59.0067 23.848C58.2387 24.616 57.3027 25 56.1987 25H51.1947C50.0907 25 49.1427 24.616 48.3507 23.848C47.5587 23.056 47.1627 22.096 47.1627 20.968V10.384C47.1627 9.64 47.3427 8.968 47.7027 8.368C48.0867 7.744 48.5787 7.252 49.1787 6.892C49.7787 6.532 50.4507 6.352 51.1947 6.352H56.1987C56.9427 6.352 57.6147 6.532 58.2147 6.892C58.8147 7.252 59.2947 7.744 59.6547 8.368C60.0147 8.968 60.1947 9.64 60.1947 10.384V12.256C60.1947 12.712 60.0387 13.108 59.7267 13.444C59.4147 13.756 59.0307 13.912 58.5747 13.912H57.5667C57.1107 13.912 56.7267 13.756 56.4147 13.444C56.1027 13.108 55.9467 12.712 55.9467 12.256V11.14C55.9467 10.996 55.8867 10.876 55.7667 10.78C55.6707 10.684 55.5627 10.636 55.4427 10.636H51.9507C51.8307 10.636 51.7107 10.684 51.5907 10.78C51.4947 10.876 51.4467 10.996 51.4467 11.14V20.284C51.4467 20.404 51.4947 20.512 51.5907 20.608C51.7107 20.704 51.8307 20.752 51.9507 20.752H55.4427C55.5627 20.752 55.6707 20.704 55.7667 20.608C55.8867 20.512 55.9467 20.404 55.9467 20.284V19.168C55.9467 18.712 56.1027 18.328 56.4147 18.016C56.7267 17.68 57.1107 17.512 57.5667 17.512H58.5747C59.0307 17.512 59.4147 17.68 59.7267 18.016C60.0387 18.328 60.1947 18.712 60.1947 19.168V20.968ZM73.8156 23.344C73.8156 23.8 73.6596 24.196 73.3476 24.532C73.0356 24.844 72.6516 25 72.1956 25H67.1556C66.0516 25 65.1036 24.616 64.3116 23.848C63.5436 23.056 63.1596 22.096 63.1596 20.968V2.32C63.1596 1.84 63.3156 1.444 63.6276 1.132C63.9396 0.819998 64.3236 0.663998 64.7796 0.663998H65.7876C66.2436 0.663998 66.6276 0.819998 66.9396 1.132C67.2756 1.444 67.4436 1.84 67.4436 2.32V5.92C67.4436 6.208 67.5996 6.352 67.9116 6.352H72.1956C72.6516 6.352 73.0356 6.52 73.3476 6.856C73.6596 7.168 73.8156 7.564 73.8156 8.044V9.016C73.8156 9.424 73.6596 9.808 73.3476 10.168C72.9876 10.48 72.6036 10.636 72.1956 10.636H67.9116C67.5996 10.636 67.4436 10.804 67.4436 11.14V20.284C67.4436 20.596 67.5996 20.752 67.9116 20.752H72.1956C72.6516 20.752 73.0356 20.908 73.3476 21.22C73.6596 21.532 73.8156 21.928 73.8156 22.408V23.344ZM82.1651 2.968C82.1651 3.712 81.8891 4.36 81.3371 4.912C80.8091 5.44 80.1851 5.704 79.4651 5.704C78.7211 5.704 78.0731 5.44 77.5211 4.912C76.9931 4.36 76.7291 3.712 76.7291 2.968C76.7291 2.248 76.9931 1.624 77.5211 1.096C78.0731 0.543999 78.7211 0.267999 79.4651 0.267999C80.1851 0.267999 80.8091 0.543999 81.3371 1.096C81.8891 1.624 82.1651 2.248 82.1651 2.968ZM81.5891 23.344C81.5891 23.8 81.4211 24.196 81.0851 24.532C80.7731 24.844 80.3891 25 79.9331 25H78.9611C78.5051 25 78.1091 24.844 77.7731 24.532C77.4611 24.196 77.3051 23.8 77.3051 23.344V8.404C77.3051 7.948 77.4611 7.564 77.7731 7.252C78.1091 6.916 78.5051 6.748 78.9611 6.748H79.9331C80.3891 6.748 80.7731 6.916 81.0851 7.252C81.4211 7.564 81.5891 7.948 81.5891 8.404V23.344ZM98.0931 20.968C98.0931 22.096 97.6971 23.056 96.9051 23.848C96.1371 24.616 95.2011 25 94.0971 25H89.0931C87.9891 25 87.0411 24.616 86.2491 23.848C85.4571 23.056 85.0611 22.096 85.0611 20.968V10.384C85.0611 9.64 85.2411 8.968 85.6011 8.368C85.9851 7.744 86.4771 7.252 87.0771 6.892C87.6771 6.532 88.3491 6.352 89.0931 6.352H94.0971C94.8411 6.352 95.5131 6.532 96.1131 6.892C96.7131 7.252 97.1931 7.744 97.5531 8.368C97.9131 8.968 98.0931 9.64 98.0931 10.384V12.256C98.0931 12.712 97.9371 13.108 97.6251 13.444C97.3131 13.756 96.9291 13.912 96.4731 13.912H95.4651C95.0091 13.912 94.6251 13.756 94.3131 13.444C94.0011 13.108 93.8451 12.712 93.8451 12.256V11.14C93.8451 10.996 93.7851 10.876 93.6651 10.78C93.5691 10.684 93.4611 10.636 93.3411 10.636H89.8491C89.7291 10.636 89.6091 10.684 89.4891 10.78C89.3931 10.876 89.3451 10.996 89.3451 11.14V20.284C89.3451 20.404 89.3931 20.512 89.4891 20.608C89.6091 20.704 89.7291 20.752 89.8491 20.752H93.3411C93.4611 20.752 93.5691 20.704 93.6651 20.608C93.7851 20.512 93.8451 20.404 93.8451 20.284V19.168C93.8451 18.712 94.0011 18.328 94.3131 18.016C94.6251 17.68 95.0091 17.512 95.4651 17.512H96.4731C96.9291 17.512 97.3131 17.68 97.6251 18.016C97.9371 18.328 98.0931 18.712 98.0931 19.168V20.968ZM114.054 14.308C114.054 15.028 113.874 15.7 113.514 16.324C113.154 16.924 112.674 17.416 112.074 17.8C111.474 18.16 110.802 18.34 110.058 18.34H105.81C105.69 18.34 105.57 18.388 105.45 18.484C105.354 18.556 105.306 18.652 105.306 18.772V20.284C105.306 20.404 105.354 20.512 105.45 20.608C105.57 20.704 105.69 20.752 105.81 20.752H110.058C110.514 20.752 110.898 20.908 111.21 21.22C111.546 21.532 111.714 21.928 111.714 22.408V23.344C111.714 23.8 111.546 24.196 111.21 24.532C110.898 24.844 110.514 25 110.058 25H105.054C103.95 25 103.002 24.616 102.21 23.848C101.418 23.056 101.022 22.096 101.022 20.968V10.384C101.022 9.64 101.202 8.968 101.562 8.368C101.946 7.768 102.438 7.288 103.038 6.928C103.638 6.544 104.31 6.352 105.054 6.352H110.058C110.802 6.352 111.474 6.544 112.074 6.928C112.674 7.288 113.154 7.768 113.514 8.368C113.874 8.968 114.054 9.64 114.054 10.384V14.308ZM109.806 13.588V11.14C109.806 10.996 109.746 10.876 109.626 10.78C109.53 10.684 109.422 10.636 109.302 10.636H105.81C105.69 10.636 105.57 10.684 105.45 10.78C105.354 10.876 105.306 10.996 105.306 11.14V13.588C105.306 13.684 105.354 13.78 105.45 13.876C105.57 13.972 105.69 14.02 105.81 14.02H109.302C109.422 14.02 109.53 13.972 109.626 13.876C109.746 13.78 109.806 13.684 109.806 13.588Z" fill="black"/>
<path d="M133.471 3.292C133.471 3.796 133.303 4.192 132.967 4.48C132.655 4.792 132.271 4.948 131.815 4.948H121.771C121.459 4.948 121.303 5.104 121.303 5.416V9.232C121.303 9.568 121.459 9.736 121.771 9.736H128.719C129.607 9.736 130.399 9.952 131.095 10.384C131.815 10.816 132.391 11.392 132.823 12.112C133.255 12.808 133.471 13.6 133.471 14.488V20.248C133.471 21.112 133.255 21.904 132.823 22.624C132.391 23.344 131.815 23.92 131.095 24.352C130.375 24.784 129.583 25 128.719 25H121.807C120.943 25 120.139 24.784 119.395 24.352C118.675 23.92 118.099 23.344 117.667 22.624C117.235 21.904 117.019 21.112 117.019 20.248V17.656C117.019 17.2 117.175 16.816 117.487 16.504C117.823 16.168 118.219 16 118.675 16H119.683C120.115 16 120.487 16.168 120.799 16.504C121.135 16.816 121.303 17.2 121.303 17.656V20.248C121.303 20.368 121.351 20.488 121.447 20.608C121.567 20.704 121.687 20.752 121.807 20.752H128.719C128.839 20.752 128.947 20.704 129.043 20.608C129.139 20.488 129.187 20.368 129.187 20.248V14.488C129.187 14.368 129.139 14.26 129.043 14.164C128.947 14.044 128.839 13.984 128.719 13.984H118.675C118.195 13.984 117.811 13.816 117.523 13.48C117.187 13.192 117.019 12.808 117.019 12.328V2.32C117.019 1.84 117.175 1.444 117.487 1.132C117.823 0.819998 118.219 0.663998 118.675 0.663998H131.815C132.271 0.663998 132.655 0.819998 132.967 1.132C133.303 1.444 133.471 1.84 133.471 2.32V3.292ZM152.877 20.248C152.877 21.112 152.661 21.904 152.229 22.624C151.797 23.344 151.221 23.92 150.501 24.352C149.781 24.784 148.989 25 148.125 25H141.213C140.445 25 139.713 24.82 139.017 24.46L138.981 24.424C138.189 24.016 137.565 23.44 137.109 22.696C136.653 21.928 136.425 21.112 136.425 20.248V5.452C136.425 4.564 136.641 3.76 137.073 3.04C137.505 2.32 138.081 1.744 138.801 1.312C139.545 0.879998 140.349 0.663998 141.213 0.663998H148.125C148.341 0.663998 148.629 0.699998 148.989 0.771999C149.373 0.819999 149.769 0.951999 150.177 1.168H150.213C151.029 1.576 151.677 2.164 152.157 2.932C152.637 3.676 152.877 4.516 152.877 5.452V20.248ZM146.181 5.38C146.229 5.26 146.229 5.164 146.181 5.092C146.133 4.996 146.049 4.948 145.929 4.948H141.213C141.093 4.948 140.973 4.996 140.853 5.092C140.757 5.188 140.709 5.308 140.709 5.452V14.812C140.709 14.908 140.757 14.968 140.853 14.992C140.949 15.016 141.021 14.98 141.069 14.884L146.181 5.38ZM148.593 20.248V10.636C148.593 10.516 148.545 10.444 148.449 10.42C148.377 10.396 148.305 10.432 148.233 10.528L143.013 20.32C142.989 20.416 143.001 20.512 143.049 20.608C143.097 20.704 143.169 20.752 143.265 20.752H148.125C148.245 20.752 148.353 20.704 148.449 20.608C148.545 20.488 148.593 20.368 148.593 20.248Z" fill="#3D35B0"/>
</svg>
