<svg width="200" height="40" viewBox="0 0 588 80" fill="none" xmlns="http://www.w3.org/2000/svg">
<path d="M53.848 33.88C53.848 37.976 52.888 41.72 50.968 45.112C49.112 48.44 46.264 51.128 42.424 53.176C38.648 55.16 34.008 56.152 28.504 56.152H19.192V79H0.376V11.32H28.504C33.944 11.32 38.552 12.28 42.328 14.2C46.168 16.12 49.048 18.776 50.968 22.168C52.888 25.56 53.848 29.464 53.848 33.88ZM26.68 41.176C31.992 41.176 34.648 38.744 34.648 33.88C34.648 28.952 31.992 26.488 26.68 26.488H19.192V41.176H26.68ZM80.2233 34.648C82.3353 31.576 84.8953 29.144 87.9033 27.352C90.9113 25.56 94.1433 24.664 97.5993 24.664V44.728H92.3193C88.2233 44.728 85.1833 45.528 83.1993 47.128C81.2153 48.728 80.2233 51.512 80.2233 55.48V79H61.4073V25.144H80.2233V34.648ZM101.273 52.024C101.273 46.456 102.265 41.592 104.249 37.432C106.297 33.272 109.049 30.072 112.505 27.832C116.025 25.592 119.929 24.472 124.217 24.472C127.929 24.472 131.129 25.208 133.817 26.68C136.505 28.152 138.585 30.136 140.057 32.632V25.144H158.873V79H140.057V71.512C138.585 74.008 136.473 75.992 133.721 77.464C131.033 78.936 127.865 79.672 124.217 79.672C119.929 79.672 116.025 78.552 112.505 76.312C109.049 74.072 106.297 70.872 104.249 66.712C102.265 62.488 101.273 57.592 101.273 52.024ZM140.057 52.024C140.057 48.568 139.097 45.848 137.177 43.864C135.321 41.88 133.017 40.888 130.265 40.888C127.449 40.888 125.113 41.88 123.257 43.864C121.401 45.784 120.473 48.504 120.473 52.024C120.473 55.48 121.401 58.232 123.257 60.28C125.113 62.264 127.449 63.256 130.265 63.256C133.017 63.256 135.321 62.264 137.177 60.28C139.097 58.296 140.057 55.544 140.057 52.024ZM166.523 52.024C166.523 46.456 167.675 41.592 169.979 37.432C172.283 33.272 175.483 30.072 179.579 27.832C183.739 25.592 188.475 24.472 193.787 24.472C200.635 24.472 206.395 26.36 211.067 30.136C215.739 33.848 218.747 39.064 220.091 45.784H200.123C198.971 42.264 196.731 40.504 193.403 40.504C191.035 40.504 189.147 41.496 187.739 43.48C186.395 45.4 185.723 48.248 185.723 52.024C185.723 55.8 186.395 58.68 187.739 60.664C189.147 62.648 191.035 63.64 193.403 63.64C196.795 63.64 199.035 61.88 200.123 58.36H220.091C218.747 65.016 215.739 70.232 211.067 74.008C206.395 77.784 200.635 79.672 193.787 79.672C188.475 79.672 183.739 78.552 179.579 76.312C175.483 74.072 172.283 70.872 169.979 66.712C167.675 62.552 166.523 57.656 166.523 52.024ZM259.683 62.968V79H251.523C237.763 79 230.883 72.184 230.883 58.552V40.792H224.259V25.144H230.883V12.088H249.795V25.144H259.587V40.792H249.795V58.84C249.795 60.312 250.115 61.368 250.755 62.008C251.459 62.648 252.611 62.968 254.211 62.968H259.683ZM277.818 20.152C274.49 20.152 271.802 19.256 269.754 17.464C267.77 15.608 266.778 13.304 266.778 10.552C266.778 7.736 267.77 5.4 269.754 3.544C271.802 1.688 274.49 0.759995 277.818 0.759995C281.082 0.759995 283.706 1.688 285.69 3.544C287.738 5.4 288.762 7.736 288.762 10.552C288.762 13.304 287.738 15.608 285.69 17.464C283.706 19.256 281.082 20.152 277.818 20.152ZM287.13 25.144V79H268.314V25.144H287.13ZM294.773 52.024C294.773 46.456 295.925 41.592 298.229 37.432C300.533 33.272 303.733 30.072 307.829 27.832C311.989 25.592 316.725 24.472 322.037 24.472C328.885 24.472 334.645 26.36 339.317 30.136C343.989 33.848 346.997 39.064 348.341 45.784H328.373C327.221 42.264 324.981 40.504 321.653 40.504C319.285 40.504 317.397 41.496 315.989 43.48C314.645 45.4 313.973 48.248 313.973 52.024C313.973 55.8 314.645 58.68 315.989 60.664C317.397 62.648 319.285 63.64 321.653 63.64C325.045 63.64 327.285 61.88 328.373 58.36H348.341C346.997 65.016 343.989 70.232 339.317 74.008C334.645 77.784 328.885 79.672 322.037 79.672C316.725 79.672 311.989 78.552 307.829 76.312C303.733 74.072 300.533 70.872 298.229 66.712C295.925 62.552 294.773 57.656 294.773 52.024ZM407.613 51.448C407.613 52.92 407.517 54.392 407.325 55.864H371.709C371.901 58.808 372.701 61.016 374.109 62.488C375.581 63.896 377.437 64.6 379.677 64.6C382.813 64.6 385.053 63.192 386.397 60.376H406.461C405.629 64.088 403.997 67.416 401.565 70.36C399.197 73.24 396.189 75.512 392.541 77.176C388.893 78.84 384.861 79.672 380.445 79.672C375.133 79.672 370.397 78.552 366.237 76.312C362.141 74.072 358.909 70.872 356.541 66.712C354.237 62.552 353.085 57.656 353.085 52.024C353.085 46.392 354.237 41.528 356.541 37.432C358.845 33.272 362.045 30.072 366.141 27.832C370.301 25.592 375.069 24.472 380.445 24.472C385.757 24.472 390.461 25.56 394.557 27.736C398.653 29.912 401.853 33.048 404.157 37.144C406.461 41.176 407.613 45.944 407.613 51.448ZM388.413 46.744C388.413 44.44 387.645 42.648 386.109 41.368C384.573 40.024 382.653 39.352 380.349 39.352C378.045 39.352 376.157 39.992 374.685 41.272C373.213 42.488 372.253 44.312 371.805 46.744H388.413ZM413.105 63.928C419.314 59.064 424.402 54.872 428.37 51.352C432.338 47.832 435.666 44.216 438.354 40.504C441.042 36.728 442.386 33.144 442.386 29.752C442.386 27.704 441.906 26.104 440.946 24.952C440.05 23.8 438.706 23.224 436.914 23.224C435.058 23.224 433.618 24.024 432.594 25.624C431.57 27.16 431.09 29.432 431.154 32.44H412.914C413.106 26.744 414.354 22.04 416.658 18.328C418.962 14.552 421.97 11.8 425.682 10.072C429.394 8.27999 433.522 7.384 438.066 7.384C445.938 7.384 451.794 9.33599 455.634 13.24C459.474 17.144 461.394 22.2 461.394 28.408C461.394 35.064 459.154 41.304 454.674 47.128C450.258 52.952 444.722 58.168 438.066 62.776H462.066V78.04H413.105V63.928ZM468.338 42.904C468.338 31.896 470.578 23.224 475.058 16.888C479.538 10.552 486.578 7.384 496.178 7.384C505.778 7.384 512.818 10.552 517.298 16.888C521.842 23.224 524.114 31.896 524.114 42.904C524.114 54.04 521.874 62.776 517.394 69.112C512.914 75.448 505.842 78.616 496.178 78.616C486.514 78.616 479.442 75.448 474.962 69.112C470.546 62.776 468.338 54.04 468.338 42.904ZM505.49 42.904C505.49 37.144 504.882 32.76 503.666 29.752C502.45 26.68 499.954 25.144 496.178 25.144C492.402 25.144 489.906 26.68 488.69 29.752C487.474 32.76 486.866 37.144 486.866 42.904C486.866 48.792 487.442 53.272 488.594 56.344C489.81 59.352 492.338 60.856 496.178 60.856C500.018 60.856 502.514 59.352 503.666 56.344C504.882 53.272 505.49 48.792 505.49 42.904ZM531.432 42.904C531.432 31.896 533.672 23.224 538.152 16.888C542.632 10.552 549.672 7.384 559.272 7.384C568.872 7.384 575.912 10.552 580.392 16.888C584.936 23.224 587.208 31.896 587.208 42.904C587.208 54.04 584.968 62.776 580.488 69.112C576.008 75.448 568.936 78.616 559.272 78.616C549.608 78.616 542.536 75.448 538.056 69.112C533.64 62.776 531.432 54.04 531.432 42.904ZM568.584 42.904C568.584 37.144 567.976 32.76 566.76 29.752C565.544 26.68 563.048 25.144 559.272 25.144C555.496 25.144 553 26.68 551.784 29.752C550.568 32.76 549.96 37.144 549.96 42.904C549.96 48.792 550.536 53.272 551.688 56.344C552.904 59.352 555.432 60.856 559.272 60.856C563.112 60.856 565.608 59.352 566.76 56.344C567.976 53.272 568.584 48.792 568.584 42.904Z" fill="black"/>
</svg>
