<svg width="154" height="33" viewBox="0 0 154 33" fill="none" xmlns="http://www.w3.org/2000/svg">
<path d="M2.912 18.632C4.72533 20.4453 6.53867 21.352 8.352 21.352C9.29067 21.352 10.0373 21.1387 10.592 20.712C11.168 20.264 11.456 19.6987 11.456 19.016C11.456 18.312 11.1147 17.7253 10.432 17.256C9.74933 16.7653 8.91733 16.3387 7.936 15.976C6.976 15.6133 6.016 15.208 5.056 14.76C4.096 14.2907 3.27467 13.6293 2.592 12.776C1.90933 11.9227 1.568 10.888 1.568 9.672C1.568 7.752 2.368 6.09867 3.968 4.712C5.568 3.304 7.46667 2.6 9.664 2.6C10.6667 2.6 11.6373 2.70667 12.576 2.92C13.5147 3.13333 14.4213 3.44267 15.296 3.848L13.12 8.52C12.5227 8.05067 11.7013 7.624 10.656 7.24C9.632 6.83467 8.72533 6.632 7.936 6.632C7.168 6.632 6.53867 6.824 6.048 7.208C5.57867 7.57067 5.344 8.06133 5.344 8.68C5.344 9.29867 5.68533 9.85333 6.368 10.344C7.05067 10.8133 7.872 11.2293 8.832 11.592C9.81333 11.9547 10.784 12.36 11.744 12.808C12.7253 13.2347 13.5573 13.8747 14.24 14.728C14.9227 15.5813 15.264 16.616 15.264 17.832C15.264 19.8373 14.464 21.5973 12.864 23.112C11.264 24.6053 9.39733 25.352 7.264 25.352C5.664 25.352 4.24533 24.968 3.008 24.2C1.92 23.5387 1.152 22.952 0.704 22.44L0.416 22.088L2.912 18.632ZM18.8977 9.512V6.024L23.2178 5.192L22.8018 9.512H26.6737L26.3218 12.136H22.6737L22.5138 18.824C22.5138 19.8267 22.6098 20.4987 22.8018 20.84C22.9938 21.16 23.3458 21.32 23.8577 21.32C24.3698 21.32 25.0524 21.2027 25.9058 20.968L26.0978 23.24C24.6898 24.4133 23.4524 25 22.3858 25C21.3191 25 20.4444 24.616 19.7617 23.848C19.0791 23.0587 18.7378 22.0347 18.7378 20.776L18.9297 17.192L18.8977 12.136H16.6897L17.0417 9.512H18.8977ZM28.3727 9.544L32.2448 8.712C32.4367 10.3547 32.5647 11.912 32.6287 13.384C34.5701 10.376 36.3941 8.872 38.1007 8.872L37.7487 13.864C36.5114 13.864 35.5301 13.9813 34.8047 14.216C34.1007 14.4293 33.3754 14.8667 32.6287 15.528V16.68L32.9808 24.2L28.6927 25L29.0767 17.224C28.9914 14.3653 28.7567 11.8053 28.3727 9.544ZM43.031 25C41.7723 25 40.7377 24.6053 39.927 23.816C39.1377 23.0053 38.743 21.928 38.743 20.584C38.743 19.2187 39.3617 18.0453 40.599 17.064C41.8363 16.0613 43.3403 15.56 45.111 15.56H47.287V15.016C47.287 13.9707 47.0737 13.256 46.647 12.872C46.2203 12.488 45.4203 12.296 44.247 12.296C43.7563 12.296 43.1697 12.4027 42.487 12.616C41.8257 12.808 41.079 13.1173 40.247 13.544L39.319 11.016C40.2363 10.376 41.3457 9.8 42.647 9.288C43.9697 8.776 45.0577 8.52 45.911 8.52C49.2603 8.52 50.935 10.1413 50.935 13.384V19.656C50.935 20.8507 51.3083 22.184 52.055 23.656L48.663 25.096C48.1297 24.072 47.735 23.1547 47.479 22.344C46.3057 24.1147 44.823 25 43.031 25ZM44.375 21.736C45.2283 21.736 46.199 21.2987 47.287 20.424V18.28C46.1563 18.024 45.239 17.896 44.535 17.896C43.191 17.896 42.519 18.4933 42.519 19.688C42.519 20.3067 42.6897 20.808 43.031 21.192C43.3723 21.5547 43.8203 21.736 44.375 21.736ZM55.779 9.512V6.024L60.099 5.192L59.683 9.512H63.555L63.203 12.136H59.555L59.395 18.824C59.395 19.8267 59.491 20.4987 59.683 20.84C59.875 21.16 60.227 21.32 60.739 21.32C61.251 21.32 61.9337 21.2027 62.787 20.968L62.979 23.24C61.571 24.4133 60.3337 25 59.267 25C58.2003 25 57.3257 24.616 56.643 23.848C55.9603 23.0587 55.619 22.0347 55.619 20.776L55.811 17.192L55.779 12.136H53.571L53.923 9.512H55.779ZM71.366 21.736C71.9847 21.736 72.6353 21.576 73.318 21.256C74.0007 20.936 74.534 20.616 74.918 20.296L75.494 19.816L76.966 21.608C76.7527 21.9707 76.422 22.3867 75.974 22.856C75.526 23.3253 75.0673 23.7307 74.598 24.072C74.15 24.392 73.542 24.6907 72.774 24.968C72.0273 25.224 71.2487 25.352 70.438 25.352C68.71 25.352 67.302 24.7013 66.214 23.4C65.126 22.0773 64.582 20.3813 64.582 18.312C64.582 15.7093 65.3393 13.4267 66.854 11.464C68.3687 9.50133 70.1393 8.52 72.166 8.52C73.7233 8.52 74.9287 8.95733 75.782 9.832C76.6567 10.7067 77.094 11.9333 77.094 13.512C77.094 14.4507 76.934 15.5173 76.614 16.712L75.974 17.384L67.974 18.12C68.3367 20.5307 69.4673 21.736 71.366 21.736ZM71.366 11.816C70.4273 11.816 69.638 12.2 68.998 12.968C68.358 13.7147 67.9847 14.6747 67.878 15.848L73.318 15.176C73.382 14.6853 73.414 14.28 73.414 13.96C73.414 12.5307 72.7313 11.816 71.366 11.816ZM78.4672 28.168C78.4672 26.2907 80.2166 24.8187 83.7152 23.752C82.8832 23.3253 82.4672 22.7707 82.4672 22.088C82.4672 21.8107 82.5739 21.5333 82.7872 21.256C83.0006 20.9787 83.3099 20.6907 83.7152 20.392V20.136C82.1792 20.136 80.9526 19.7093 80.0352 18.856C79.1392 18.0027 78.6912 16.8613 78.6912 15.432C78.6912 13.576 79.4486 11.9653 80.9632 10.6C82.4779 9.21333 84.2699 8.52 86.3392 8.52C86.8726 8.52 87.6512 8.62667 88.6752 8.84C89.6992 9.05333 90.7019 9.16 91.6832 9.16H94.1472L93.8272 11.944L91.4272 11.656C91.6406 12.2747 91.7472 12.9787 91.7472 13.768C91.7472 14.5573 91.5552 15.3467 91.1712 16.136C90.8086 16.904 90.3606 17.5227 89.8272 17.992C89.3152 18.4613 88.7926 18.8773 88.2592 19.24C87.7472 19.5813 87.2992 19.8907 86.9152 20.168C86.5526 20.424 86.3712 20.6587 86.3712 20.872C86.3712 21.2773 86.7979 21.6293 87.6512 21.928C89.9126 22.8453 91.4379 23.624 92.2272 24.264C93.0379 24.904 93.4432 25.6933 93.4432 26.632C93.4432 28.2107 92.6432 29.5013 91.0432 30.504C89.4646 31.528 87.5766 32.04 85.3792 32.04C83.1819 32.04 81.4752 31.688 80.2592 30.984C79.0646 30.28 78.4672 29.3413 78.4672 28.168ZM88.1312 14.728C88.1312 13.6827 87.8966 12.9147 87.4272 12.424C86.9579 11.9333 86.2219 11.688 85.2192 11.688C83.2779 11.688 82.3072 12.648 82.3072 14.568C82.3072 16.4667 83.3419 17.416 85.4112 17.416C87.2246 17.416 88.1312 16.52 88.1312 14.728ZM89.2832 27.112C89.2832 26.728 89.0806 26.3653 88.6752 26.024C88.2699 25.704 87.5446 25.32 86.4992 24.872C84.9419 25.2987 83.8646 25.6933 83.2672 26.056C82.6912 26.4187 82.4032 26.8667 82.4032 27.4C82.4032 27.9333 82.6912 28.36 83.2672 28.68C83.8646 29.0213 84.6859 29.192 85.7312 29.192C86.7766 29.192 87.6299 29 88.2912 28.616C88.9526 28.232 89.2832 27.7307 89.2832 27.112ZM95.9853 31.176L99.2813 23.784L96.9133 17.32L93.6813 9.544L97.9373 8.744L99.9853 15.56L101.041 18.792H101.457L102.225 16.456L104.529 8.712L108.465 9.192L102.801 24.072L100.113 32.04L95.9853 31.176ZM117.76 2.92C119.808 2.92 121.44 3.50666 122.656 4.68C123.872 5.832 124.48 7.42133 124.48 9.448C124.48 11.4747 123.712 13.2133 122.176 14.664C120.64 16.0933 118.763 16.808 116.544 16.808H114.72L115.104 25H110.816L111.2 17.224L110.816 2.92H117.76ZM116.608 6.152H115.04L114.816 13.704H116.992C118.059 13.704 118.88 13.352 119.456 12.648C120.054 11.944 120.352 10.9413 120.352 9.64C120.352 7.31467 119.104 6.152 116.608 6.152ZM129.294 25C128.035 25 127 24.6053 126.19 23.816C125.4 23.0053 125.006 21.928 125.006 20.584C125.006 19.2187 125.624 18.0453 126.862 17.064C128.099 16.0613 129.603 15.56 131.374 15.56H133.55V15.016C133.55 13.9707 133.336 13.256 132.91 12.872C132.483 12.488 131.683 12.296 130.51 12.296C130.019 12.296 129.432 12.4027 128.75 12.616C128.088 12.808 127.342 13.1173 126.51 13.544L125.582 11.016C126.499 10.376 127.608 9.8 128.91 9.288C130.232 8.776 131.32 8.52 132.174 8.52C135.523 8.52 137.198 10.1413 137.198 13.384V19.656C137.198 20.8507 137.571 22.184 138.318 23.656L134.926 25.096C134.392 24.072 133.998 23.1547 133.742 22.344C132.568 24.1147 131.086 25 129.294 25ZM130.638 21.736C131.491 21.736 132.462 21.2987 133.55 20.424V18.28C132.419 18.024 131.502 17.896 130.798 17.896C129.454 17.896 128.782 18.4933 128.782 19.688C128.782 20.3067 128.952 20.808 129.294 21.192C129.635 21.5547 130.083 21.736 130.638 21.736ZM149.242 21.864C147.578 23.9547 146.138 25 144.922 25C143.407 25 142.159 24.3813 141.178 23.144C140.218 21.9067 139.738 20.3173 139.738 18.376C139.738 15.7093 140.474 13.4587 141.946 11.624C143.439 9.78933 145.263 8.872 147.418 8.872L149.21 9.128V8.52L148.826 1.032L153.21 0.231998L152.794 16.68V19.496C152.794 20.776 153.114 22.248 153.754 23.912L150.298 25.352C149.679 24.072 149.327 22.9093 149.242 21.864ZM143.322 16.712C143.322 18.0773 143.567 19.144 144.058 19.912C144.57 20.68 145.295 21.064 146.234 21.064C147.194 21.064 148.186 20.68 149.21 19.912V13C147.93 12.744 146.98 12.616 146.362 12.616C145.402 12.616 144.655 12.9573 144.122 13.64C143.588 14.3227 143.322 15.3467 143.322 16.712Z" fill="#3B5D50"/>
</svg>
