<svg width="110" height="26" viewBox="0 0 110 26" fill="none" xmlns="http://www.w3.org/2000/svg">
<path d="M2.912 18.632C4.72533 20.4453 6.53867 21.352 8.352 21.352C9.29067 21.352 10.0373 21.1387 10.592 20.712C11.168 20.264 11.456 19.6987 11.456 19.016C11.456 18.312 11.1147 17.7253 10.432 17.256C9.74933 16.7653 8.91733 16.3387 7.936 15.976C6.976 15.6133 6.016 15.208 5.056 14.76C4.096 14.2907 3.27467 13.6293 2.592 12.776C1.90933 11.9227 1.568 10.888 1.568 9.672C1.568 7.752 2.368 6.09867 3.968 4.712C5.568 3.304 7.46667 2.6 9.664 2.6C10.6667 2.6 11.6373 2.70667 12.576 2.92C13.5147 3.13333 14.4213 3.44267 15.296 3.848L13.12 8.52C12.5227 8.05067 11.7013 7.624 10.656 7.24C9.632 6.83467 8.72533 6.632 7.936 6.632C7.168 6.632 6.53867 6.824 6.048 7.208C5.57867 7.57067 5.344 8.06133 5.344 8.68C5.344 9.29867 5.68533 9.85333 6.368 10.344C7.05067 10.8133 7.872 11.2293 8.832 11.592C9.81333 11.9547 10.784 12.36 11.744 12.808C12.7253 13.2347 13.5573 13.8747 14.24 14.728C14.9227 15.5813 15.264 16.616 15.264 17.832C15.264 19.8373 14.464 21.5973 12.864 23.112C11.264 24.6053 9.39733 25.352 7.264 25.352C5.664 25.352 4.24533 24.968 3.008 24.2C1.92 23.5387 1.152 22.952 0.704 22.44L0.416 22.088L2.912 18.632ZM18.8977 9.512V6.024L23.2178 5.192L22.8018 9.512H26.6737L26.3218 12.136H22.6737L22.5138 18.824C22.5138 19.8267 22.6098 20.4987 22.8018 20.84C22.9938 21.16 23.3458 21.32 23.8577 21.32C24.3698 21.32 25.0524 21.2027 25.9058 20.968L26.0978 23.24C24.6898 24.4133 23.4524 25 22.3858 25C21.3191 25 20.4444 24.616 19.7617 23.848C19.0791 23.0587 18.7378 22.0347 18.7378 20.776L18.9297 17.192L18.8977 12.136H16.6897L17.0417 9.512H18.8977ZM28.3727 9.544L32.2448 8.712C32.4367 10.3547 32.5647 11.912 32.6287 13.384C34.5701 10.376 36.3941 8.872 38.1007 8.872L37.7487 13.864C36.5114 13.864 35.5301 13.9813 34.8047 14.216C34.1007 14.4293 33.3754 14.8667 32.6287 15.528V16.68L32.9808 24.2L28.6927 25L29.0767 17.224C28.9914 14.3653 28.7567 11.8053 28.3727 9.544ZM43.031 25C41.7723 25 40.7377 24.6053 39.927 23.816C39.1377 23.0053 38.743 21.928 38.743 20.584C38.743 19.2187 39.3617 18.0453 40.599 17.064C41.8363 16.0613 43.3403 15.56 45.111 15.56H47.287V15.016C47.287 13.9707 47.0737 13.256 46.647 12.872C46.2203 12.488 45.4203 12.296 44.247 12.296C43.7563 12.296 43.1697 12.4027 42.487 12.616C41.8257 12.808 41.079 13.1173 40.247 13.544L39.319 11.016C40.2363 10.376 41.3457 9.8 42.647 9.288C43.9697 8.776 45.0577 8.52 45.911 8.52C49.2603 8.52 50.935 10.1413 50.935 13.384V19.656C50.935 20.8507 51.3083 22.184 52.055 23.656L48.663 25.096C48.1297 24.072 47.735 23.1547 47.479 22.344C46.3057 24.1147 44.823 25 43.031 25ZM44.375 21.736C45.2283 21.736 46.199 21.2987 47.287 20.424V18.28C46.1563 18.024 45.239 17.896 44.535 17.896C43.191 17.896 42.519 18.4933 42.519 19.688C42.519 20.3067 42.6897 20.808 43.031 21.192C43.3723 21.5547 43.8203 21.736 44.375 21.736ZM55.779 9.512V6.024L60.099 5.192L59.683 9.512H63.555L63.203 12.136H59.555L59.395 18.824C59.395 19.8267 59.491 20.4987 59.683 20.84C59.875 21.16 60.227 21.32 60.739 21.32C61.251 21.32 61.9337 21.2027 62.787 20.968L62.979 23.24C61.571 24.4133 60.3337 25 59.267 25C58.2003 25 57.3257 24.616 56.643 23.848C55.9603 23.0587 55.619 22.0347 55.619 20.776L55.811 17.192L55.779 12.136H53.571L53.923 9.512H55.779ZM73.254 2.92C75.302 2.92 76.934 3.50666 78.15 4.68C79.366 5.832 79.974 7.42133 79.974 9.448C79.974 11.4747 79.206 13.2133 77.67 14.664C76.134 16.0933 74.2567 16.808 72.038 16.808H70.214L70.598 25H66.31L66.694 17.224L66.31 2.92H73.254ZM72.102 6.152H70.534L70.31 13.704H72.486C73.5527 13.704 74.374 13.352 74.95 12.648C75.5473 11.944 75.846 10.9413 75.846 9.64C75.846 7.31467 74.598 6.152 72.102 6.152ZM84.7872 25C83.5286 25 82.4939 24.6053 81.6832 23.816C80.8939 23.0053 80.4992 21.928 80.4992 20.584C80.4992 19.2187 81.1179 18.0453 82.3552 17.064C83.5926 16.0613 85.0966 15.56 86.8672 15.56H89.0432V15.016C89.0432 13.9707 88.8299 13.256 88.4032 12.872C87.9766 12.488 87.1766 12.296 86.0032 12.296C85.5126 12.296 84.9259 12.4027 84.2432 12.616C83.5819 12.808 82.8352 13.1173 82.0032 13.544L81.0752 11.016C81.9926 10.376 83.1019 9.8 84.4032 9.288C85.7259 8.776 86.8139 8.52 87.6672 8.52C91.0166 8.52 92.6912 10.1413 92.6912 13.384V19.656C92.6912 20.8507 93.0646 22.184 93.8112 23.656L90.4192 25.096C89.8859 24.072 89.4912 23.1547 89.2352 22.344C88.0619 24.1147 86.5792 25 84.7872 25ZM86.1312 21.736C86.9846 21.736 87.9552 21.2987 89.0432 20.424V18.28C87.9126 18.024 86.9952 17.896 86.2912 17.896C84.9472 17.896 84.2752 18.4933 84.2752 19.688C84.2752 20.3067 84.4459 20.808 84.7872 21.192C85.1286 21.5547 85.5766 21.736 86.1312 21.736ZM104.735 21.864C103.071 23.9547 101.631 25 100.415 25C98.9006 25 97.6526 24.3813 96.6713 23.144C95.7113 21.9067 95.2313 20.3173 95.2313 18.376C95.2313 15.7093 95.9673 13.4587 97.4393 11.624C98.9326 9.78933 100.757 8.872 102.911 8.872L104.703 9.128V8.52L104.319 1.032L108.703 0.231998L108.287 16.68V19.496C108.287 20.776 108.607 22.248 109.247 23.912L105.791 25.352C105.173 24.072 104.821 22.9093 104.735 21.864ZM98.8153 16.712C98.8153 18.0773 99.0606 19.144 99.5513 19.912C100.063 20.68 100.789 21.064 101.727 21.064C102.687 21.064 103.679 20.68 104.703 19.912V13C103.423 12.744 102.474 12.616 101.855 12.616C100.895 12.616 100.149 12.9573 99.6153 13.64C99.0819 14.3227 98.8153 15.3467 98.8153 16.712Z" fill="#3B5D50"/>
</svg>
